<svg width="48" height="48" viewBox="0 0 48 48" fill="none" xmlns="http://www.w3.org/2000/svg">
<g filter="url(#filter0_d_129_4456)">
<path d="M13.4337 36.7379C12.5587 37.6129 11.7351 38.3593 10.0237 37.9089C9.57333 36.1975 10.3197 35.3739 11.1947 34.4989C12.0697 33.6239 11.851 33.0963 11.2848 33.0963C5.54567 33.3794 6.83246 41.1001 6.83246 41.1001C6.83246 41.1001 14.5661 42.3741 14.8363 36.6478C14.8492 36.0688 14.3216 35.85 13.4337 36.7379Z" fill="white"/>
<path d="M30.3416 30.8351C30.3288 30.8223 30.3288 30.8223 30.3416 30.8351C35.9392 27.142 41.3309 19.9489 42 6C28.0383 6.65626 20.8451 12.0479 17.152 17.6455C9.00659 16.1657 6.54881 24.8515 6.1113 27.2964C5.67379 29.7414 6.54881 30.4877 8.33745 29.5226C9.74006 28.7634 12.3008 28.7505 13.356 28.7763C13.2401 30.1531 13.3045 30.9896 13.3045 30.9896L17.0104 34.6955C17.0104 34.6955 17.8597 34.747 19.2237 34.644C19.2495 35.6992 19.2366 38.2599 18.4774 39.6625C17.5123 41.4512 18.2586 42.3262 20.7036 41.8887C23.1227 41.4255 31.8215 38.9805 30.3416 30.8351ZM27.8581 20.322C26.3783 18.8422 26.3654 16.4359 27.8581 14.9432C29.3508 13.4505 31.7442 13.4505 33.2369 14.9432C34.7296 16.4359 34.7296 18.8293 33.2369 20.322C31.7442 21.8147 29.3379 21.8018 27.8581 20.322Z" fill="white"/>
</g>
<defs>
<filter id="filter0_d_129_4456" x="2" y="2" width="44" height="44" filterUnits="userSpaceOnUse" color-interpolation-filters="sRGB">
<feFlood flood-opacity="0" result="BackgroundImageFix"/>
<feColorMatrix in="SourceAlpha" type="matrix" values="0 0 0 0 0 0 0 0 0 0 0 0 0 0 0 0 0 0 127 0" result="hardAlpha"/>
<feOffset/>
<feGaussianBlur stdDeviation="2"/>
<feComposite in2="hardAlpha" operator="out"/>
<feColorMatrix type="matrix" values="0 0 0 0 0 0 0 0 0 0 0 0 0 0 0 0 0 0 0.25 0"/>
<feBlend mode="normal" in2="BackgroundImageFix" result="effect1_dropShadow_129_4456"/>
<feBlend mode="normal" in="SourceGraphic" in2="effect1_dropShadow_129_4456" result="shape"/>
</filter>
</defs>
</svg>
