<svg width="54" height="48" viewBox="0 0 54 48" fill="none" xmlns="http://www.w3.org/2000/svg">
<g filter="url(#filter0_d_129_4442)">
<path d="M43.0868 38.6416H10.9126V43.0845H43.0868V38.6416Z" fill="white"/>
<path d="M47.0283 19.7113C45.4132 20.3552 40.3092 22.802 38.4357 27.8244C38.1772 23.7035 37.9834 15.5904 38.7587 13.2723C37.0789 15.3328 33.5901 19.325 31.7812 24.0254C30.2306 17.7152 28.0986 10.9543 27.0003 8.24994V8.18555V8.24994C25.8373 10.9543 23.7699 17.7152 22.2194 24.0254C20.4104 19.325 16.9216 15.3972 15.2418 13.2723C16.0171 15.6548 15.8879 23.7035 15.5649 27.8244C13.7559 22.802 8.65194 20.2908 6.97217 19.7113C11.43 26.5366 10.9132 36.5814 10.9132 36.5814H27.0003H43.0873C43.0873 36.5814 42.5059 26.5366 47.0283 19.7113Z" fill="white"/>
<path d="M26.9996 9.79507C28.6052 9.79507 29.9069 8.4978 29.9069 6.89754C29.9069 5.29727 28.6052 4 26.9996 4C25.3939 4 24.0923 5.29727 24.0923 6.89754C24.0923 8.4978 25.3939 9.79507 26.9996 9.79507Z" fill="white"/>
<path d="M39.2749 14.4958C40.7378 14.4958 41.9237 13.3138 41.9237 11.8558C41.9237 10.3978 40.7378 9.21582 39.2749 9.21582C37.8119 9.21582 36.626 10.3978 36.626 11.8558C36.626 13.3138 37.8119 14.4958 39.2749 14.4958Z" fill="white"/>
<path d="M47.8679 20.6765C49.0453 20.6765 49.9999 19.7251 49.9999 18.5516C49.9999 17.3781 49.0453 16.4268 47.8679 16.4268C46.6904 16.4268 45.7358 17.3781 45.7358 18.5516C45.7358 19.7251 46.6904 20.6765 47.8679 20.6765Z" fill="white"/>
<path d="M6.13202 20.6765C7.30951 20.6765 8.26405 19.7251 8.26405 18.5516C8.26405 17.3781 7.30951 16.4268 6.13202 16.4268C4.95454 16.4268 4 17.3781 4 18.5516C4 19.7251 4.95454 20.6765 6.13202 20.6765Z" fill="white"/>
<path d="M14.7246 14.4958C16.1875 14.4958 17.3734 13.3138 17.3734 11.8558C17.3734 10.3978 16.1875 9.21582 14.7246 9.21582C13.2616 9.21582 12.0757 10.3978 12.0757 11.8558C12.0757 13.3138 13.2616 14.4958 14.7246 14.4958Z" fill="white"/>
</g>
<defs>
<filter id="filter0_d_129_4442" x="0" y="0" width="54" height="47.085" filterUnits="userSpaceOnUse" color-interpolation-filters="sRGB">
<feFlood flood-opacity="0" result="BackgroundImageFix"/>
<feColorMatrix in="SourceAlpha" type="matrix" values="0 0 0 0 0 0 0 0 0 0 0 0 0 0 0 0 0 0 127 0" result="hardAlpha"/>
<feOffset/>
<feGaussianBlur stdDeviation="2"/>
<feComposite in2="hardAlpha" operator="out"/>
<feColorMatrix type="matrix" values="0 0 0 0 0 0 0 0 0 0 0 0 0 0 0 0 0 0 0.25 0"/>
<feBlend mode="normal" in2="BackgroundImageFix" result="effect1_dropShadow_129_4442"/>
<feBlend mode="normal" in="SourceGraphic" in2="effect1_dropShadow_129_4442" result="shape"/>
</filter>
</defs>
</svg>
