<svg width="48" height="49" viewBox="0 0 48 49" fill="none" xmlns="http://www.w3.org/2000/svg">
<g filter="url(#filter0_d_129_4462)">
<path d="M24 4C12.9529 4 4 12.3694 4 22.7025C4 28.4535 6.77647 33.585 11.1294 37.0216C10.6353 40.54 8.23529 42.6908 7.05882 43.8597C13.4118 44.713 16.4824 41.6037 17.4353 40.3764C19.4941 41.0427 21.7059 41.405 24 41.405C35.0471 41.405 44 33.0356 44 22.7025C44 12.3694 35.0471 4 24 4ZM27.9882 14.8591C28.2706 14.5435 28.6588 14.3565 29.0824 14.3331C29.5059 14.3098 29.9176 14.45 30.2235 14.7306C30.5412 15.0111 30.7294 15.3968 30.7529 15.8176C30.7765 16.2385 30.6353 16.6476 30.3529 16.9515L23.0235 25.0637L20.9294 22.6674L27.9882 14.8591ZM16.4941 32.2875L10.0941 24.9819C9.81176 24.6663 9.68235 24.2572 9.70588 23.8364C9.74118 23.4155 9.92941 23.0298 10.2471 22.761C10.5647 22.4804 10.9765 22.3518 11.4 22.3752C11.8235 22.4103 12.2118 22.5973 12.4824 22.9129L16.5176 27.5301L17.0941 26.8989L19.1882 29.2951L16.4941 32.2875ZM37.1765 16.8463L23.3294 32.1707L16.9294 24.865C16.6471 24.5494 16.5176 24.1403 16.5412 23.7195C16.5765 23.2987 16.7647 22.9129 17.0824 22.6441C17.7412 22.0713 18.7412 22.1414 19.3176 22.796L23.3529 27.4132L34.8235 14.7423C35.1059 14.4267 35.4941 14.2396 35.9176 14.2162C36.3412 14.1929 36.7529 14.3331 37.0588 14.6137C37.3765 14.8942 37.5647 15.28 37.5882 15.7008C37.6118 16.1216 37.4706 16.5307 37.1765 16.8463Z" fill="white"/>
</g>
<defs>
<filter id="filter0_d_129_4462" x="0" y="0" width="48" height="48.0059" filterUnits="userSpaceOnUse" color-interpolation-filters="sRGB">
<feFlood flood-opacity="0" result="BackgroundImageFix"/>
<feColorMatrix in="SourceAlpha" type="matrix" values="0 0 0 0 0 0 0 0 0 0 0 0 0 0 0 0 0 0 127 0" result="hardAlpha"/>
<feOffset/>
<feGaussianBlur stdDeviation="2"/>
<feComposite in2="hardAlpha" operator="out"/>
<feColorMatrix type="matrix" values="0 0 0 0 0 0 0 0 0 0 0 0 0 0 0 0 0 0 0.25 0"/>
<feBlend mode="normal" in2="BackgroundImageFix" result="effect1_dropShadow_129_4462"/>
<feBlend mode="normal" in="SourceGraphic" in2="effect1_dropShadow_129_4462" result="shape"/>
</filter>
</defs>
</svg>
