<svg width="187" height="123" viewBox="0 0 187 123" fill="none" xmlns="http://www.w3.org/2000/svg">
<path d="M15.4606 118.78C15.4606 118.78 -7.23229 96.8618 7.20341 71.0797C21.6391 45.2975 41.0335 58.2604 40.0951 28.2483C39.1568 -1.76382 84.6942 -4.34204 99.1877 4.36212C113.681 13.0663 113.594 23.5443 143.52 20.0756C173.445 16.6068 179.161 45.513 171.373 60.2497C160.33 81.1484 202.028 77.7012 175.755 118.78H15.4606Z" fill="#EBF3FA"/>
<path opacity="0.3" d="M115.125 67.2089C115.125 67.2089 119.947 46.8705 136.216 44.637C136.216 44.637 139.384 44.2492 140.438 47.7179C141.492 51.1866 135.198 51.2082 131.307 52.6086C127.417 54.0018 118.344 59.9124 115.125 67.2089Z" fill="#AEC3FF"/>
<path opacity="0.3" d="M114.757 63.4022C114.757 63.4022 113.068 46.554 124.934 40.5789C124.934 40.5789 127.258 39.4514 128.983 41.8357C130.708 44.2128 125.894 45.8861 123.281 47.976C120.675 50.0587 115.291 56.9674 114.757 63.4022Z" fill="#AEC3FF"/>
<path d="M186.783 122.995H0.216535C0.10105 122.995 0 122.08 0 120.882V120.108C0 118.981 0.093832 117.995 0.216535 117.995H186.783C186.899 117.995 187 118.911 187 120.108V120.882C187 122.009 186.899 122.995 186.783 122.995Z" fill="#3E476A"/>
<path d="M26.9801 103.484C24.4683 97.7885 33.5772 92.8978 33.5772 92.8978C33.5772 92.8978 45.5805 96.7616 47.3055 95.7059C49.0306 94.643 37.6914 90.4058 37.6914 90.4058C40.4919 87.684 51.2176 85.1847 51.2176 85.1847C51.2176 85.1847 58.4571 95.117 59.8646 93.6735C61.2721 92.2228 53.0076 85.1991 53.0076 85.1991C56.6527 83.7197 62.1527 84.9334 62.1527 84.9334C70.0706 87.7414 66.0431 97.7095 66.0431 97.7095C66.0431 97.7095 68.6271 101.099 73.7517 103.247C73.7517 103.247 74.7839 103.577 76.2202 104.388L75.4191 105.028C75.1809 104.87 74.9427 104.719 74.7045 104.582C74.7045 104.582 74.7045 104.582 74.6973 104.582L74.6901 104.575C74.5385 104.496 74.3147 104.381 74.0477 104.252C73.4197 103.972 72.965 103.749 72.6546 103.584C70.713 102.679 68.0785 101.573 67.0464 101.731C67.0464 101.731 67.0319 101.537 66.9237 101.229C66.9597 101.387 67.0031 101.559 67.0464 101.731C68.0424 105.753 61.5824 111.728 57.1363 114.012C52.6901 116.288 53.484 113.89 54.1336 110.5C54.7832 107.118 59.4604 104.123 60.1822 102.421C60.904 100.719 58.4932 101.53 56.1041 103.764C53.715 105.997 54.4945 109.552 50.6979 113.236C46.9013 116.92 37.5398 111.735 37.5398 111.735C41.091 110.335 44.9164 104.697 44.3246 103.57C43.7327 102.442 36.2767 108.575 34.862 109.222C33.4401 109.868 29.4919 109.179 26.9801 103.484Z" fill="#CDE0FB"/>
<path d="M141.679 110.334C145.346 106.032 138.698 99.4324 138.698 99.4324C138.698 99.4324 127.258 99.6981 126.038 98.3336C124.818 96.9691 135.775 96.2078 135.775 96.2078C134.05 93.1197 125.381 88.1859 125.381 88.1859C125.381 88.1859 116.51 94.9582 115.659 93.3352C114.814 91.7121 123.822 87.7407 123.822 87.7407C121.036 85.5215 115.94 85.1553 115.94 85.1553C108.325 85.5503 109.235 95.2599 109.235 95.2599C109.235 95.2599 106.109 97.5436 101.093 98.0894C101.093 98.0894 100.111 98.111 98.6533 98.4485L99.1802 99.2098C99.4256 99.1308 99.6783 99.0661 99.9164 99.0087C99.9164 99.0087 99.9164 99.0087 99.9237 99.0087H99.9309C100.082 98.98 100.306 98.9369 100.58 98.8938C101.201 98.8148 101.649 98.7358 101.966 98.6711C103.893 98.3839 106.463 98.1038 107.322 98.506C107.322 98.506 107.38 98.3408 107.56 98.1038C107.481 98.2331 107.401 98.3695 107.322 98.506C105.409 101.745 109.466 108.603 112.743 111.727C116.012 114.851 115.947 112.56 116.265 109.451C116.582 106.341 113.298 102.535 113.111 100.869C112.93 99.2026 114.814 100.531 116.308 103.088C117.802 105.645 116.2 108.532 118.538 112.711C120.877 116.891 130.361 114.794 130.361 114.794C127.64 112.668 125.785 106.779 126.594 105.953C127.402 105.12 132.288 112.374 133.342 113.307C134.411 114.219 138.019 114.636 141.679 110.334Z" fill="#CDE0FB"/>
<path opacity="0.5" d="M50.5318 27.0058C54.3068 20.7003 65.2779 26.0578 65.2779 26.0578C65.2779 26.0578 69.7746 40.1842 71.9833 41.1034C74.1919 42.0227 70.5108 28.277 70.5108 28.277C75.0581 29.0813 84.8238 37.6275 84.8238 37.6275C84.8238 37.6275 80.19 51.3588 82.5574 51.7107C84.9249 52.0626 86.0364 39.3439 86.0364 39.3439C89.9629 41.8144 92.5614 47.9044 92.5614 47.9044C95.2825 57.3986 82.8894 60.3861 82.8894 60.3861C82.8894 60.3861 81.3881 65.1763 82.8245 71.5608C82.8245 71.5608 83.2142 72.7745 83.4091 74.7064L82.2398 74.3832C82.2326 74.0456 82.211 73.7153 82.1749 73.3921V73.3849C82.1749 73.3778 82.1749 73.3778 82.1749 73.3706C82.146 73.1695 82.1027 72.8822 82.045 72.5303C81.8862 71.7332 81.7851 71.1514 81.7418 70.7421C81.7418 70.7421 81.7418 70.7421 81.7418 70.7349C81.2871 68.2572 80.5436 64.9824 79.6847 64.0991C79.6847 64.0991 79.8652 63.9554 80.0817 63.6322C79.9518 63.7831 79.8219 63.9339 79.6847 64.0991C76.4872 67.8048 66.2884 65.7293 61.0338 63.0434C55.7792 60.3574 58.6519 59.4669 62.3619 57.7648C66.0791 56.0628 72.1709 58.483 74.3074 58.0018C76.4439 57.5207 74.0115 55.7755 70.2149 55.0214C66.4183 54.2746 63.524 57.4488 57.3671 56.3501C51.2103 55.2441 49.8028 42.748 49.8028 42.748C53.585 45.1826 61.6545 44.9743 62.3402 43.6313C63.0259 42.2884 51.9898 39.3654 50.3947 38.4677C48.7923 37.5628 46.7569 33.3113 50.5318 27.0058Z" fill="#CDE0FB"/>
<path d="M92.6992 38.5469C92.6992 38.1375 92.7714 37.7641 92.9158 37.4193C93.0601 37.0746 93.2694 36.773 93.5365 36.5216C93.8035 36.2703 94.1211 36.0692 94.4965 35.9256C94.8718 35.7819 95.2976 35.7101 95.7668 35.7101C96.236 35.7101 96.6618 35.7819 97.0444 35.9256C97.4269 36.0692 97.7517 36.2631 98.0188 36.5216C98.2858 36.773 98.4951 37.0746 98.6395 37.4193C98.7839 37.7641 98.856 38.1447 98.856 38.5469C98.856 38.9562 98.7839 39.3297 98.6395 39.6672C98.4951 40.0047 98.2858 40.3064 98.0188 40.5577C97.7517 40.8091 97.4269 41.0102 97.0444 41.1538C96.6618 41.2974 96.236 41.3693 95.7668 41.3693C95.2976 41.3693 94.8718 41.2974 94.4965 41.1538C94.1211 41.0102 93.8035 40.8163 93.5365 40.5577C93.2694 40.3064 93.0601 40.0119 92.9158 39.6672C92.7714 39.3297 92.6992 38.9562 92.6992 38.5469ZM98.0549 33.2755H93.4787L92.8291 17.7129H98.7045L98.0549 33.2755Z" fill="#FD5D65"/>
<path d="M78.877 23.336C78.877 23.02 78.9347 22.7327 79.043 22.467C79.1584 22.2013 79.3172 21.9715 79.5193 21.7776C79.7214 21.5836 79.9741 21.4328 80.2556 21.3251C80.5443 21.2174 80.8691 21.1599 81.23 21.1599C81.5909 21.1599 81.9157 21.2174 82.2116 21.3251C82.5075 21.4328 82.7529 21.5836 82.955 21.7776C83.1571 21.9715 83.3159 22.2013 83.4314 22.467C83.5469 22.7327 83.5974 23.02 83.5974 23.336C83.5974 23.652 83.5397 23.932 83.4314 24.1978C83.3159 24.4563 83.1571 24.6861 82.955 24.88C82.7529 25.0739 82.5003 25.2247 82.2116 25.3325C81.9157 25.4402 81.5909 25.4977 81.23 25.4977C80.8691 25.4977 80.5443 25.4402 80.2556 25.3325C79.9668 25.2247 79.7214 25.0739 79.5193 24.88C79.3172 24.6861 79.1584 24.4563 79.043 24.1978C78.9347 23.9392 78.877 23.652 78.877 23.336ZM82.9911 19.2927H79.476L78.978 7.34961H83.4892L82.9911 19.2927Z" fill="#AEC3FF"/>
<path d="M147.114 43.5166C147.114 43.2006 147.172 42.9134 147.28 42.6477C147.396 42.3819 147.555 42.1521 147.757 41.9582C147.959 41.7643 148.211 41.6135 148.493 41.5058C148.782 41.398 149.106 41.3406 149.467 41.3406C149.828 41.3406 150.153 41.398 150.449 41.5058C150.745 41.6135 150.99 41.7643 151.192 41.9582C151.394 42.1521 151.553 42.3819 151.669 42.6477C151.784 42.9134 151.835 43.2006 151.835 43.5166C151.835 43.8326 151.777 44.1127 151.669 44.3784C151.553 44.637 151.394 44.8668 151.192 45.0607C150.99 45.2546 150.738 45.4054 150.449 45.5131C150.153 45.6209 149.828 45.6783 149.467 45.6783C149.106 45.6783 148.782 45.6209 148.493 45.5131C148.204 45.4054 147.959 45.2546 147.757 45.0607C147.555 44.8668 147.396 44.637 147.28 44.3784C147.172 44.1127 147.114 43.8254 147.114 43.5166ZM151.228 39.4734H147.713L147.215 27.5303H151.726L151.228 39.4734Z" fill="#AEC3FF"/>
<path d="M139.384 73.9089C138.647 75.2662 137.738 76.6307 136.8 77.7439C135.818 78.9073 134.815 79.7978 133.963 80.0995H133.956C133.913 80.1138 133.869 80.1282 133.826 80.1426H133.819C133.645 80.1928 133.479 80.2144 133.328 80.2072C130.542 80.0851 127.611 74.1459 127.611 74.1459C127.611 74.1459 127.691 73.4421 128.232 72.9465C128.701 72.5156 129.069 72.4007 129.069 72.4007C129.069 72.4007 132.065 75.4601 132.801 75.6828C133.263 75.8192 133.869 73.6791 134.735 70.9931C135.601 68.3072 138.655 67.6465 138.655 67.6465C138.655 67.6465 141.729 69.5855 139.384 73.9089Z" fill="#AEC3FF"/>
<path d="M136.799 77.744C135.818 78.9074 134.814 79.7979 133.963 80.0996H133.956L133.826 80.1427H133.818C133.847 80.1211 134.757 79.6543 134.901 78.7853C135.045 77.8948 134.1 77.1694 136.475 75.7978C137.86 74.9934 136.799 77.744 136.799 77.744Z" fill="#94B0ED"/>
<path d="M134.627 118.485H141.152C141.621 118.169 141.029 115.088 141.029 115.088C141.029 115.088 139.246 114.413 138.943 115.785C138.633 117.149 136.677 117.587 135.637 117.752C134.923 117.86 134.699 118.248 134.627 118.485Z" fill="#24406D"/>
<path d="M144.573 86.5268C144.573 86.5268 144.371 90.3115 144.111 94.6995C143.924 97.845 143.714 101.299 143.534 103.885C143.512 104.23 143.483 104.56 143.462 104.869C143.454 104.962 143.447 105.063 143.44 105.156C142.971 110.959 141.412 116.043 141.412 116.043C139.578 116.431 138.748 115.727 138.748 115.727C138.748 115.727 137.485 100.991 137.016 95.0514C136.67 90.6777 136.381 84.3076 136.381 84.3076L144.573 86.5268Z" fill="#FF9E55"/>
<path d="M144.111 94.6998C143.923 97.8453 143.714 101.3 143.534 103.885C142.336 101.07 139.889 90.1035 139.889 90.1035L144.111 94.6998Z" fill="#ED7D2B"/>
<path d="M144.299 118.485H150.824C151.293 118.169 150.701 115.088 150.701 115.088C150.701 115.088 148.918 114.413 148.615 115.785C148.305 117.149 146.349 117.587 145.309 117.752C144.595 117.86 144.371 118.248 144.299 118.485Z" fill="#24406D"/>
<path d="M138.156 85.7725C138.156 85.7725 142.812 97.3062 144.306 101.68C145.367 104.797 148.355 115.72 148.355 115.72C148.355 115.72 149.654 116.115 150.751 115.354C150.751 115.354 151.863 104.186 149.618 101.041C148.427 99.3673 149.322 83.6754 144.486 83.5461C139.643 83.4169 138.156 85.7725 138.156 85.7725Z" fill="#FF9E55"/>
<path d="M147.691 82.0597C147.669 83.6971 147.655 84.9036 147.655 85.2124C147.669 86.2035 147.027 86.4261 146.37 86.577C146.37 86.577 145.764 86.7062 144.999 86.8355C144.248 86.9576 143.346 87.0869 142.704 87.0797C139.434 87.0509 136.698 86.0958 136.698 86.0958C136.085 86.0958 135.803 85.1478 135.702 83.8264C135.637 82.9287 135.912 74.0019 135.948 71.7756C135.969 70.1741 136.857 68.7018 137.103 68.4864C139.383 66.4755 146.125 66.7269 147.337 68.1129C147.641 68.4576 147.727 71.7612 147.734 75.3808C147.742 77.7148 147.713 80.1781 147.691 82.0597Z" fill="#AEC3FF"/>
<path d="M143.649 67.3237C142.79 68.2501 139.896 68.1137 139.982 67.3021C139.997 67.2016 140.011 66.6127 140.026 66.5193C140.033 66.4475 140.04 66.3757 140.047 66.3039C140.069 66.1028 140.083 65.9304 140.098 65.7724C140.134 65.3272 140.148 65.0902 140.148 65.0902C140.228 65.0686 142.09 64.5444 143.014 64.3217C143.324 64.2499 143.526 64.2068 143.526 64.2356C143.238 66.3111 143.931 67.022 143.649 67.3237Z" fill="#FFB27D"/>
<path d="M143.108 64.9386C143.108 64.9386 142.328 65.7214 140.091 65.7788C140.127 65.3336 140.141 65.0966 140.141 65.0966C140.221 65.075 142.083 64.5508 143.007 64.3281C143.173 64.3928 142.956 64.8237 143.108 64.9386Z" fill="#ED975D"/>
<path d="M139.571 64.9817C139.571 64.9817 140.141 65.1828 140.863 65.2833C141.924 65.427 143.31 65.3408 143.75 64.0696C144.487 61.9295 145.425 60.644 143.26 59.7678C142.097 59.301 141.361 59.2723 140.856 59.4518C140.416 59.6026 140.163 59.9114 139.968 60.2203C139.542 60.8738 138.698 64.6082 139.571 64.9817Z" fill="#FFB27D"/>
<path d="M140.127 58.5544C139.355 59.0571 139.608 60.2421 140.517 60.4073C141.066 60.5007 141.52 60.5222 141.788 60.6371C142.329 60.8741 142.791 61.1255 142.661 61.9585C142.618 62.2386 142.48 62.5833 143.209 62.4182C143.332 62.3894 143.419 62.3966 143.476 62.4325C143.78 62.6121 143.39 63.481 143.274 63.6678C143.274 63.6678 143.108 64.2926 143.476 64.5942C143.52 64.6301 144.256 64.9461 146.024 62.2602C146.306 61.8364 146.566 60.8885 146.14 59.9692C145.714 59.05 144.516 57.8937 142.264 57.8937C141.679 57.8865 140.799 58.1164 140.127 58.5544Z" fill="#233862"/>
<path d="M147.692 82.0596C147.36 83.5821 147.446 83.5965 146.941 83.2015C144.884 81.5713 145.483 80.7238 145.945 79.3162C146.4 77.9086 144.797 75.7039 145.945 74.7631C147.064 73.8438 147.706 75.3232 147.735 75.3879C147.742 77.7147 147.713 80.178 147.692 82.0596Z" fill="#94B0ED"/>
<path d="M147.641 81.8662C147.641 81.8662 146.868 83.1302 146.356 83.0799C145.851 83.0368 145.165 82.8501 144.768 83.2235C144.371 83.597 143.736 84.5665 143.909 84.825C144.09 85.0836 144.804 84.8538 145.317 84.5737C145.829 84.2936 146.645 84.7101 147.078 84.3941C147.511 84.071 148.543 82.7998 148.543 82.7998L147.641 81.8662Z" fill="#FFB27D"/>
<path d="M147.338 68.1201C147.338 68.1201 153.776 74.1455 152.939 78.1529C152.556 79.977 151.38 81.5211 148.226 84.0131C148.226 84.0131 146.739 82.9861 146.407 82.1603C146.407 82.1603 149.265 78.1529 149.157 77.4706C149.02 76.6376 147.071 74.5405 146.371 74.2173C145.671 73.887 145.735 68.8167 147.338 68.1201Z" fill="#AEC3FF"/>
<path d="M146.356 83.0869C146.356 83.0869 145.677 82.7924 145.461 82.6631C145.244 82.5339 145.295 82.7421 145.36 82.8427C145.425 82.9432 145.605 83.173 145.872 83.1946C146.139 83.2233 146.356 83.0869 146.356 83.0869Z" fill="#FFB27D"/>
<path d="M33.2098 69.9952C32.9789 69.55 38.284 67.9413 38.3706 72.3436C38.3706 72.3436 48.3168 72.0995 43.5674 66.5839C41.9218 64.6736 42.095 63.0937 42.1455 61.6286C42.196 60.1564 41.1206 55.8905 37.4395 56.3214C37.4395 56.3214 36.4723 55.9336 35.2741 56.5512C32.5386 57.9588 26.4106 71.6183 33.2098 69.9952Z" fill="#163560"/>
<path d="M49.4717 74.039C49.4717 74.039 50.1213 73.0551 50.641 73.0407C51.1607 73.0192 52.1278 72.7535 52.0484 72.9474C51.9691 73.1413 51.37 73.1556 51.3122 73.2777C51.2545 73.3926 52.2 73.565 52.4743 73.5865C52.7414 73.6081 53.3838 73.5865 53.3621 73.723C53.3404 73.8594 52.2145 74.4124 51.4133 74.3406C50.6193 74.2616 49.6305 74.5704 49.6305 74.5704L49.4717 74.039Z" fill="#FFB27D"/>
<path d="M40.1094 74.3544C40.1094 74.3544 40.4631 75.051 41.0982 75.841C41.8705 76.7961 43.0543 77.9093 44.5411 78.1247C45.2557 78.2325 45.9486 78.0745 46.5838 77.7944C48.3955 76.9972 49.7524 75.1587 49.7524 75.1587C50.07 74.2969 49.5503 73.708 49.5503 73.708C49.5503 73.708 45.8981 74.5267 45.5516 74.3544C45.2052 74.182 43.0687 69.4637 42.6789 68.6737C41.8633 67.0075 40.5641 66.5264 40.5641 66.5264L40.1094 74.3544Z" fill="#AEC3FF"/>
<path d="M41.0982 75.841C41.8706 76.7962 43.0543 77.9093 44.5412 78.1248C45.2557 78.2325 45.9486 78.0745 46.5838 77.7944C46.5116 77.8016 44.7072 78.0242 43.9854 76.7459C43.2492 75.4388 42.4552 73.3633 41.3653 74.0528C40.9034 74.3544 40.925 75.0941 41.0982 75.841Z" fill="#94B0ED"/>
<path d="M26.4826 113.574C26.4826 113.574 25.371 114.586 25.5875 115.304C25.8041 116.023 26.8074 116.504 26.9445 117.38C27.0816 118.256 27.623 118.737 28.1138 118.737C28.6046 118.737 30.4452 118.737 30.4452 118.737C30.4452 118.737 30.8061 118.12 29.9327 117.933C29.0665 117.746 28.7345 116.712 28.7923 115.757C28.85 114.802 28.7129 113.523 28.7129 113.523L26.8651 113.1L26.4826 113.574Z" fill="#1D3356"/>
<path d="M35.9163 114.005C35.9163 114.005 35.5121 118.292 36.0029 118.529L42.2607 118.515C42.2607 118.515 42.2607 117.797 41.2575 117.639C40.2542 117.481 38.4858 116.892 38.1899 115.592C37.8867 114.285 35.9163 114.005 35.9163 114.005Z" fill="#1D3356"/>
<path d="M31.1022 71.46C31.1022 71.46 31.0084 72.767 31.1022 74.3398C31.1672 75.3812 32.221 76.7744 32.3726 77.1191C32.7479 77.9809 33.1738 78.1246 33.1738 78.1246L36.4579 78.9289L37.6127 79.209L41.2578 78.1246C41.2578 78.1246 42.9179 73.5139 42.2538 70.9214C41.5898 68.3288 40.5721 66.5262 40.5721 66.5262C40.5721 66.5262 38.1036 65.5567 33.7223 66.282L31.1022 71.46Z" fill="#AEC3FF"/>
<path d="M32.0615 74.7634C32.1265 75.8047 32.2203 76.7742 32.3719 77.1189C32.7472 77.9807 33.1731 78.1244 33.1731 78.1244L36.4572 78.9287L37.8863 78.5122C37.8863 78.5122 33.1225 77.794 33.6494 73.7148L32.0615 74.7634Z" fill="#F2CCAA"/>
<path d="M41.0264 78.8285C41.0264 78.8285 42.8309 84.4158 42.9464 86.3189C43.0618 88.2221 39.4962 113.358 39.3519 114.234C39.2147 115.06 38.1826 115.584 38.1826 115.584C38.1826 115.584 37.7062 115.864 37.0277 115.67C36.0894 115.405 35.7935 115.089 35.7935 115.089C35.7935 115.089 34.386 97.1632 35.2594 90.7644C36.1255 84.3583 36.1399 78.8213 36.1399 78.8213H41.0264V78.8285Z" fill="#233862"/>
<path d="M33.3829 78.6631C33.3829 78.6631 30.6329 82.3401 30.3731 84.8249C30.1133 87.3098 29.9689 96.0355 29.4204 98.4629C28.8718 100.883 26.8652 105.544 26.8652 113.099C26.8652 113.099 27.0746 113.53 27.7169 113.76C27.9263 113.832 28.2005 113.903 28.4676 113.968C29.0017 114.09 29.5431 113.832 29.7885 113.343C31.1454 110.621 35.4761 101.845 35.6927 100.021C35.8515 98.7286 37.2156 90.1968 40.1966 85.1912C40.9112 83.9919 39.7563 79.2089 39.7563 79.2089L33.3829 78.6631Z" fill="#2B478B"/>
<path d="M41.3155 77.9668C41.3155 77.9668 40.5938 78.5342 39.1502 78.5629C37.4323 78.5988 33.1738 78.1248 33.1738 78.1248C33.1738 78.1248 32.9861 78.6491 32.9934 79.2092C32.9934 79.2092 38.1974 80.5163 41.2145 79.4031C41.2073 79.4031 41.597 78.6706 41.3155 77.9668Z" fill="#233862"/>
<path d="M38.7822 79.1519C38.7822 78.6635 39.1359 78.2686 39.569 78.2686C40.002 78.2686 40.3557 78.6635 40.3557 79.1519C40.3557 79.6402 40.002 80.0352 39.569 80.0352C39.1359 80.0352 38.7822 79.6402 38.7822 79.1519ZM39.0421 79.1519C39.0421 79.4966 39.2803 79.7767 39.569 79.7767C39.8577 79.7767 40.0959 79.4966 40.0959 79.1519C40.0959 78.8072 39.8577 78.5271 39.569 78.5271C39.273 78.5271 39.0421 78.8072 39.0421 79.1519Z" fill="black"/>
<path d="M28.121 79.4531L32.3434 83.1157C32.6466 83.3815 33.1085 83.3455 33.3756 83.0439L38.7673 76.8821C39.0344 76.5804 38.9983 76.1208 38.6951 75.8551L34.4727 72.1924C34.1695 71.9267 33.7076 71.9626 33.4405 72.2643L28.0488 78.4261C27.789 78.7277 27.8178 79.1874 28.121 79.4531Z" fill="#F78248"/>
<path d="M34.372 78.9941C34.4298 79.0085 36.6168 79.267 36.6168 79.7123C36.6168 80.2294 35.9744 80.926 35.3753 80.8973C35.1299 80.8829 34.0039 79.8559 34.0039 79.8559L34.372 78.9941Z" fill="#FFB27D"/>
<path d="M35.4975 66.0452C35.7429 65.4419 35.8944 64.5299 35.8872 63.4023L36.0532 63.4383L38.8249 63.9841C38.8249 63.9841 38.7599 64.853 38.7599 65.6717C38.7599 65.6789 38.7599 65.6861 38.7599 65.6933C38.7599 66.4043 39.2435 67.1153 38.0959 67.4025C37.7422 67.4815 34.9778 67.302 35.4975 66.0452Z" fill="#FFB27D"/>
<path d="M38.8254 63.9774C38.8254 63.9774 38.7604 64.8464 38.7604 65.6651C37.2086 65.622 36.3857 64.2144 36.0537 63.4316L38.8254 63.9774Z" fill="#E8945B"/>
<path d="M39.3445 64.7529C39.3445 64.7529 35.6706 64.8104 35.6706 62.5338C35.6706 60.2572 35.1942 58.7347 37.54 58.5982C39.8858 58.4618 40.3405 59.3308 40.5282 60.092C40.7087 60.8533 40.2972 64.6811 39.3445 64.7529Z" fill="#FFB27D"/>
<path d="M39.2071 58.5406C39.2071 58.5406 38.2039 61.2122 36.6592 61.6072C35.1146 62.0022 34.4434 61.5928 34.4434 61.5928C34.4434 61.5928 35.6271 60.6592 35.8725 59.0218C35.8725 59.0218 38.4493 57.2695 39.2071 58.5406Z" fill="#163560"/>
<path d="M38.9619 58.756C38.9619 58.756 39.7054 59.0361 40.0157 59.5747C40.3189 60.1061 40.5715 60.8027 40.5138 61.6645C40.5138 61.6645 41.2716 59.8476 40.4199 58.8206C39.5105 57.7362 38.9619 58.756 38.9619 58.756Z" fill="#163560"/>
<path d="M34.3721 78.9935C34.3721 78.9935 34.899 78.8283 35.2454 78.8714C35.5919 78.9217 35.8517 78.8642 35.8517 78.9648C35.8517 79.0653 35.397 79.1084 35.3032 79.1515C35.2166 79.2018 34.3721 78.9935 34.3721 78.9935Z" fill="#FFB27D"/>
<path d="M33.722 66.2822C33.722 66.2822 31.1164 66.4618 30.1131 68.882C29.117 71.3022 27.2188 75.3598 27.2188 76.0421C27.2188 76.7244 28.2798 78.8286 33.9674 80.0423C33.9674 80.0423 34.5593 79.4246 34.5232 78.9363C34.5232 78.9363 30.972 75.8985 30.9792 75.5466C31.0009 74.8787 31.5639 73.9881 34.682 70.8857C35.5265 70.0382 33.722 66.2822 33.722 66.2822Z" fill="#AEC3FF"/>
<path d="M106.6 45.6777H78.4219C77.7434 45.6777 77.0866 45.9506 76.603 46.4246L56.6745 66.2532C56.1909 66.7343 55.9238 67.3807 55.9238 68.063V96.1001C55.9238 96.7752 56.1981 97.4287 56.6745 97.9099L76.603 117.738C77.0866 118.22 77.7362 118.485 78.4219 118.485H106.6C107.279 118.485 107.936 118.212 108.419 117.738L128.348 97.9099C128.831 97.4287 129.098 96.7824 129.098 96.1001V68.063C129.098 67.3879 128.824 66.7343 128.348 66.2532L108.419 46.4246C107.936 45.9435 107.279 45.6777 106.6 45.6777Z" fill="#FD5D65"/>
<path d="M104.615 114.837H80.3993C79.4104 114.837 78.4865 114.456 77.7864 113.759L60.6657 96.7245C59.9656 96.0278 59.583 95.1086 59.583 94.1247V70.0303C59.583 69.0464 59.9656 68.1271 60.6657 67.4305L77.7864 50.3956C78.4865 49.699 79.4104 49.3184 80.3993 49.3184H104.615C105.604 49.3184 106.528 49.699 107.228 50.3956L124.349 67.4305C125.049 68.1271 125.431 69.0464 125.431 70.0303V94.1247C125.431 95.1086 125.049 96.0278 124.349 96.7245L107.228 113.759C106.535 114.456 105.604 114.837 104.615 114.837ZM80.3993 51.8176C80.0817 51.8176 79.7858 51.9397 79.562 52.1623L62.4413 69.1972C62.2175 69.4198 62.0948 69.7143 62.0948 70.0303V94.1247C62.0948 94.4407 62.2175 94.7351 62.4413 94.9578L79.562 111.993C79.7858 112.215 80.0817 112.337 80.3993 112.337H104.615C104.933 112.337 105.229 112.215 105.452 111.993L122.573 94.9578C122.797 94.7351 122.92 94.4407 122.92 94.1247V70.0303C122.92 69.7143 122.797 69.4198 122.573 69.1972L105.452 52.1623C105.229 51.9397 104.933 51.8176 104.615 51.8176H80.3993Z" fill="#FFE5D4"/>
<path d="M112.043 82.9941L111.552 82.5703C110.31 81.5003 108.419 81.6367 107.344 82.872L104.558 86.075C104.161 86.5346 103.403 86.2545 103.403 85.6441C103.403 85.3927 103.388 85.1414 103.359 84.89V64.7383C103.359 63.4169 102.27 62.3324 100.941 62.3324H100.761C99.4329 62.3324 98.343 63.4169 98.343 64.7383V77.8592C98.343 78.1752 98.0832 78.4337 97.7656 78.4337C97.4119 78.4337 97.1232 78.1465 97.1232 77.7946V62.196C97.1232 60.9177 96.0694 59.8691 94.7846 59.8691H94.4454C93.1606 59.8691 92.1068 60.9177 92.1068 62.196V77.9023C92.1068 78.1967 91.8686 78.4337 91.5727 78.4337C91.1974 78.4337 90.887 78.1321 90.887 77.7515V65.2338C90.887 63.9124 89.7971 62.828 88.469 62.828H88.2886C86.9605 62.828 85.8706 63.9124 85.8706 65.2338V77.852C85.8706 78.168 85.6108 78.4265 85.2932 78.4265C84.9395 78.4265 84.658 78.1393 84.658 77.7946V67.9198C84.658 66.5983 83.5681 65.5139 82.24 65.5139H82.0596C80.7315 65.5139 79.6416 66.5983 79.6416 67.9198V85.2563C79.6416 85.3066 79.6416 85.3496 79.6488 85.3999C79.6488 85.4789 79.6416 85.5579 79.6416 85.6441V95.1885C79.6416 99.0666 82.8319 102.241 86.7295 102.241H96.322C98.8122 102.241 101.021 100.941 102.284 98.9948C102.667 98.4059 103.078 97.8385 103.54 97.3071L112.353 87.181C113.414 85.9457 113.284 84.0641 112.043 82.9941Z" fill="#FFE5D4"/>
</svg>
