<svg width="184" height="184" viewBox="0 0 184 184" fill="none" xmlns="http://www.w3.org/2000/svg">
<path d="M164.506 119.49C148.757 156.577 106.798 177.353 70.4163 171.746C64.4983 170.837 48.2642 168.12 33.897 155.303C6.23381 130.632 0.315798 81.7796 22.6355 47.3546C38.8756 22.3003 67.9929 8.09472 95.6561 8.8068C101.616 8.96238 124.45 9.90184 144.526 26.4531C147.476 28.8825 153.975 34.6629 159.839 43.8242C173.589 65.342 174.768 95.321 164.506 119.49Z" fill="url(#paint0_linear_129_3806)"/>
<path d="M119.274 87.6073C123.409 82.9758 124.743 76.5073 122.799 70.6132C120.728 64.3183 119.962 56.9043 120.908 49.1253C123.379 28.7145 136.657 13.5275 150.558 15.215C164.458 16.9024 173.721 34.812 171.244 55.2288C170.765 59.1901 169.873 62.9599 168.659 66.4425C166.81 71.7262 167.606 77.5724 170.885 82.1082C174.002 86.4165 175.564 91.8618 174.876 97.5584C173.936 105.331 169.024 111.656 162.418 114.75C158.504 116.581 155.417 119.788 153.783 123.786C149.134 135.131 139.697 142.479 129.812 141.282C117.144 139.744 108.539 124.755 110.592 107.797C111.567 99.7006 114.792 92.6277 119.274 87.6073Z" fill="#BDD0FB"/>
<path d="M115.983 137.68C116.294 137.752 116.635 137.645 116.845 137.375C127.191 124.061 137.244 99.5874 143.856 81.4025C151.006 61.7337 155.781 44.973 155.829 44.8114C155.955 44.3626 155.698 43.8959 155.249 43.7642C154.8 43.6386 154.333 43.8959 154.202 44.3447C154.01 45.0089 135.077 111.148 115.504 136.334C115.217 136.705 115.283 137.232 115.654 137.519C115.756 137.597 115.869 137.65 115.983 137.68Z" fill="#91B3FA"/>
<path d="M59.6694 61.524C55.3969 57.4131 53.4402 51.4053 54.4515 45.5591C55.1995 41.2508 55.3311 36.5654 54.7387 31.922C52.8 16.741 43.8003 7.81314 34.2681 9.03384C24.7418 10.2486 18.2793 21.1511 20.218 36.3321C20.8104 40.9755 22.1209 45.4753 23.928 49.4606C26.3754 54.864 25.9984 61.1709 22.8928 66.2273C18.3271 73.6711 16.161 83.8018 17.5373 94.5726C20.1402 114.96 34.4416 129.931 49.473 128.01C64.5043 126.089 74.5811 108.006 71.9781 87.6194C70.6078 76.8366 65.9644 67.5796 59.6694 61.524Z" fill="#91B3FA"/>
<path d="M38.2833 30.6592C38.9535 38.3843 39.6357 46.1094 40.3657 53.8285C40.7307 57.6881 41.1077 61.5417 41.4966 65.3953L42.107 71.1756C42.3104 73.1024 42.5199 75.0292 42.7353 76.95C42.9567 78.8768 43.1781 80.7976 43.4174 82.7185L43.7645 85.6027L44.1295 88.4809C44.6441 92.3165 45.1288 96.1581 45.7212 99.9818C46.2897 103.811 46.912 107.629 47.6181 111.435C48.3242 115.241 49.132 119.022 50.1253 122.768C50.1433 122.84 50.1014 122.912 50.0296 122.936C49.9637 122.954 49.8919 122.918 49.868 122.852C48.5336 119.196 47.5044 115.432 46.6128 111.65C45.7212 107.862 44.9732 104.045 44.2851 100.221C43.6209 96.3915 43.0285 92.5499 42.5139 88.7023L42.1309 85.8121L41.7719 82.9219C41.5445 80.9951 41.3291 79.0623 41.1137 77.1355C40.9042 75.2028 40.7008 73.276 40.5093 71.3432C40.3238 69.4104 40.1503 67.4776 39.9827 65.5449C39.8152 63.6121 39.6476 61.6793 39.504 59.7406L39.0911 53.9362C38.5765 46.1932 38.1756 38.4381 38.02 30.6771C38.02 30.6053 38.0799 30.5395 38.1517 30.5395C38.2175 30.5335 38.2773 30.5933 38.2833 30.6592Z" fill="#7D97F4"/>
<path d="M145.986 16.2147C145.95 42.2623 145.711 132.098 144.137 163.902C143.969 167.27 141.6 169.927 138.715 169.969C124.45 170.191 72.1694 170.394 48.8803 168.725C44.0274 168.377 40.2696 163.686 40.2995 158.001C40.4311 130.667 41.1013 53.7871 44.4343 18.6322C44.8352 14.4195 47.7374 11.1225 51.3516 10.7874C66.9156 9.32132 119.489 6.06612 139.595 8.05275C143.227 8.41178 145.992 11.9542 145.986 16.2147Z" fill="url(#paint1_linear_129_3806)"/>
<path d="M139.445 24.0599C139.739 45.0931 140.576 115.05 139.224 140.882C139.027 144.658 136.412 147.656 133.18 147.805C119.878 148.416 74.515 149.397 55.0735 147.129C51.573 146.722 48.8922 143.342 48.7965 139.225C48.2938 117.767 46.9295 52.6088 48.24 27.0638C48.4494 22.9888 51.2259 19.7216 54.7085 19.4344C69.1116 18.2496 117.347 15.7484 133.881 17.1785C136.992 17.4478 139.398 20.4158 139.445 24.0599Z" fill="#91B3FA"/>
<path opacity="0.19" d="M137.255 27.0219C137.525 47.2472 138.291 114.541 137.004 139.386C136.819 143.018 134.341 145.903 131.29 146.046C118.718 146.639 75.8494 147.596 57.479 145.43C54.17 145.041 51.6388 141.786 51.5491 137.83C51.0823 117.192 49.8197 54.5176 51.0704 29.948C51.2678 26.0286 53.8947 22.8811 57.1858 22.6058C70.799 21.4629 116.384 19.0335 132.008 20.4038C134.934 20.6611 137.208 23.5214 137.255 27.0219Z" fill="white"/>
<path d="M110.843 11.9538C110.825 12.7496 110.28 13.4019 109.592 13.4258C106.223 13.5574 96.7269 13.9225 92.4784 14.1199C91.6406 14.1558 91.0063 13.2642 91.1858 12.3068L91.2158 12.1453C91.3414 11.493 91.8141 11.0083 92.3826 10.9605C95.2548 10.7151 103.919 10.0629 109.64 10.4279C110.334 10.4698 110.861 11.1519 110.843 11.9538Z" fill="#7D97F4"/>
<path d="M129.118 33.3169L79.8946 32.2039C76.2744 32.1202 73.2705 34.9924 73.1868 38.6126L73.0731 43.6031C72.9893 47.2233 75.8615 50.2272 79.4818 50.311L122.517 51.2804L128.579 57.9105C128.902 58.2635 129.405 58.3832 129.854 58.2156C130.302 58.0481 130.602 57.6232 130.614 57.1505L130.751 51.1427C133.396 50.3469 135.353 47.9234 135.419 45.0093L135.532 40.0188C135.61 36.3986 132.744 33.4007 129.118 33.3169Z" fill="#7D97F4"/>
<path opacity="0.8" d="M129.267 39.6773C129.249 40.4014 128.651 40.9699 127.933 40.9519L80.044 39.8688C79.32 39.8509 78.7515 39.2525 78.7695 38.5344L78.7754 38.3609C78.7934 37.6369 79.3918 37.0684 80.1098 37.0864L127.998 38.1694C128.722 38.1874 129.291 38.7858 129.273 39.5038L129.267 39.6773Z" fill="white"/>
<path opacity="0.8" d="M129.123 45.9488C129.105 46.6729 128.507 47.2413 127.789 47.2234L79.9005 46.1403C79.1764 46.1224 78.608 45.524 78.6259 44.8059L78.6319 44.6324C78.6498 43.9084 79.2482 43.3399 79.9663 43.3578L127.855 44.4409C128.579 44.4589 129.147 45.0572 129.129 45.7753L129.123 45.9488Z" fill="white"/>
<path d="M127.55 87.2906L78.3268 86.1776C74.7066 86.0938 71.7027 88.966 71.6189 92.5863L71.5052 97.5768C71.4214 101.197 74.2937 104.201 77.9139 104.285L120.95 105.254L127.011 111.884C127.334 112.237 127.837 112.357 128.286 112.189C128.735 112.022 129.034 111.597 129.046 111.124L129.183 105.116C131.828 104.321 133.785 101.897 133.851 98.983L133.964 93.9925C134.042 90.3722 131.176 87.3684 127.55 87.2906Z" fill="#7D97F4"/>
<path opacity="0.8" d="M127.699 93.651C127.681 94.375 127.083 94.9435 126.365 94.9255L78.4761 93.8425C77.7521 93.8245 77.1836 93.2261 77.2016 92.5081L77.2076 92.3345C77.2255 91.6105 77.8239 91.042 78.542 91.06L126.431 92.1431C127.155 92.161 127.723 92.7594 127.705 93.4774L127.699 93.651Z" fill="white"/>
<path opacity="0.8" d="M127.556 99.9225C127.538 100.647 126.939 101.215 126.221 101.197L78.3326 100.114C77.6085 100.096 77.0401 99.4976 77.058 98.7796L77.064 98.606C77.082 97.882 77.6803 97.3135 78.3984 97.3315L126.287 98.4145C127.011 98.4325 127.579 99.0309 127.562 99.7489L127.556 99.9225Z" fill="white"/>
<g opacity="0.43">
<path d="M61.4825 60.7108L110.705 61.8238C114.326 61.9075 117.198 64.9114 117.114 68.5316L117 73.5221C116.917 77.1424 113.913 80.0146 110.293 79.9308L67.2568 78.9614L60.902 85.3103C60.5669 85.6454 60.0583 85.7471 59.6155 85.5556C59.1787 85.3701 58.8974 84.9333 58.9094 84.4546L59.047 78.4468C56.4381 77.5313 54.5951 75.0241 54.6609 72.11L54.7746 67.1194C54.8584 63.4992 57.8622 60.627 61.4825 60.7108Z" fill="url(#paint2_linear_129_3806)"/>
</g>
<path opacity="0.8" d="M111.549 68.0233C111.567 67.2993 110.993 66.7069 110.275 66.6889L62.3862 65.6059C61.6622 65.5879 61.0698 66.1624 61.0518 66.8804L61.0458 67.054C61.0279 67.778 61.6023 68.3704 62.3204 68.3884L110.209 69.4714C110.933 69.4894 111.525 68.9149 111.543 68.1969L111.549 68.0233Z" fill="white"/>
<path opacity="0.8" d="M111.412 74.2939C111.43 73.5698 110.855 72.9774 110.137 72.9595L62.2485 71.8764C61.5245 71.8584 60.9321 72.4329 60.9141 73.1509L60.9081 73.3245C60.8902 74.0485 61.4646 74.6409 62.1827 74.6589L110.071 75.7419C110.795 75.7599 111.388 75.1854 111.406 74.4674L111.412 74.2939Z" fill="white"/>
<path d="M64.0791 115.474L113.302 116.587C116.922 116.671 119.795 119.675 119.711 123.295L119.597 128.286C119.513 131.906 116.509 134.778 112.889 134.694L69.8535 133.725L63.4987 140.074C63.1636 140.409 62.655 140.511 62.2122 140.319C61.7754 140.134 61.4941 139.697 61.5061 139.218L61.6437 133.211C59.0348 132.295 57.1917 129.788 57.2576 126.874L57.3713 121.883C57.455 118.263 60.4529 115.391 64.0791 115.474Z" fill="white"/>
<path d="M73.701 123.038C73.701 123.038 73.2702 118.825 69.0875 119.645C65.1202 120.417 66.5504 125.832 72.2649 129.141C72.8813 129.5 73.6412 129.536 74.2875 129.237C76.7229 128.118 82.3776 124.959 79.0925 120.878C76.9742 118.245 73.701 123.038 73.701 123.038Z" fill="url(#paint3_linear_129_3806)"/>
<path d="M89.702 123.397C89.702 123.397 89.2712 119.184 85.0885 120.004C81.1212 120.776 82.5513 126.192 88.2659 129.501C88.8822 129.86 89.6422 129.896 90.2884 129.596C92.7239 128.477 98.3786 125.318 95.0934 121.237C92.9752 118.604 89.702 123.397 89.702 123.397Z" fill="url(#paint4_linear_129_3806)"/>
<path d="M111.1 121.601C108.982 118.968 105.708 123.761 105.708 123.761C105.708 123.761 105.278 119.549 101.095 120.369C97.1276 121.14 98.5577 126.556 104.272 129.865C104.889 130.224 105.649 130.26 106.295 129.961C108.724 128.842 114.379 125.676 111.1 121.601Z" fill="url(#paint5_linear_129_3806)"/>
<path d="M164.787 89.553C164.787 89.553 164.787 102.813 158.977 101.73C155.429 101.072 153.322 86.7885 153.322 86.7885C153.322 86.7885 156.996 78.6026 157.409 81.2834C160.389 100.755 162.609 85.849 164.787 89.553Z" fill="url(#paint6_linear_129_3806)"/>
<path d="M149.176 168.24C149.176 168.24 148.739 170.724 148.524 173.183C148.44 174.146 149.182 174.978 150.145 175.02C153.418 175.158 160.425 175.421 162.939 175.307C163.316 175.289 163.561 174.906 163.423 174.553C163.304 174.26 163.082 174.021 162.795 173.889L151.222 168.569L149.176 168.24Z" fill="url(#paint7_linear_129_3806)"/>
<path d="M148.817 166.78L149.17 169.754C149.17 169.754 151.198 170.699 152.581 169.634L151.743 166.325L148.817 166.78Z" fill="url(#paint8_linear_129_3806)"/>
<path d="M149.08 110.909C148.93 111.687 148.26 149.637 152.317 166.649C152.383 166.924 152.245 167.211 151.976 167.319C151.354 167.57 150.133 167.941 148.673 167.989C148.218 168.007 147.817 167.708 147.686 167.277C146.525 163.333 140.972 143.557 140.242 124.672C139.434 103.567 140.242 123.954 140.242 123.954L140.715 110.909H149.08Z" fill="url(#paint9_linear_129_3806)"/>
<path d="M135.862 169.538C135.862 169.538 135.161 170.795 134.485 174.128C134.366 174.732 134.784 175.306 135.395 175.366C136.478 175.474 138.141 175.612 139.476 175.6C140.092 175.594 140.571 175.061 140.499 174.451C140.349 173.236 139.889 171.237 138.471 169.682L135.862 169.538Z" fill="url(#paint10_linear_129_3806)"/>
<path d="M135.251 165.715L136.077 170.208C136.077 170.208 136.891 170.813 138.501 170.376L138.106 165.541L135.251 165.715Z" fill="url(#paint11_linear_129_3806)"/>
<path d="M133.025 112.076C129.71 132.098 133.743 161.568 135.108 167.337C135.191 167.69 135.479 167.959 135.832 168.019C136.442 168.12 137.441 168.204 138.429 167.917C138.77 167.821 139.009 167.51 139.021 167.157C139.207 162.496 138.877 133.869 141.965 122.554C142.121 121.979 142.474 121.482 142.958 121.135L148.96 116.869L149.421 109.976L133.025 112.076Z" fill="url(#paint12_linear_129_3806)"/>
<path d="M154.531 74.8868C142.414 73.6781 133.253 76.7418 133.253 76.7418C130.291 94.0351 132.732 113.985 132.732 113.985C140.427 116.002 149.116 112.752 149.116 112.752C150.396 105.524 155.728 88.8291 155.728 88.8291C158.157 88.5299 160.437 89.7566 159.911 86.3817C159.384 83.0129 156.057 75.0424 154.531 74.8868Z" fill="url(#paint13_linear_129_3806)"/>
<path d="M137.064 86.3692L133.253 76.7412C133.253 76.7412 123.966 83.0541 122.44 91.0545C124.193 91.1862 127.389 91.6409 130.512 93.2207C131.2 89.4389 137.064 86.3692 137.064 86.3692Z" fill="url(#paint14_linear_129_3806)"/>
<path d="M145.992 95.429C145.992 95.429 135.562 101.323 132.044 96.2907C131.314 95.2435 131.14 94.2083 131.32 93.215C128.196 91.6352 125.001 91.1805 123.248 91.0488C122.787 93.4603 123.032 96.0274 124.45 98.6184C130.614 109.892 147.374 97.9961 147.374 97.9961L145.992 95.429Z" fill="url(#paint15_linear_129_3806)"/>
<path d="M151.557 94.9858L154.98 83.0361C155.016 82.8984 155.136 82.8027 155.273 82.7847C155.896 82.7129 157.691 82.5095 159.761 82.336C162.256 82.1265 165.159 81.953 166.894 82.0966C167.139 82.1146 167.289 82.3778 167.181 82.5992C166.194 84.5919 162.143 92.7059 160.108 95.3627C160.042 95.4525 159.935 95.5004 159.827 95.5004L151.887 95.4286C151.659 95.4286 151.492 95.2072 151.557 94.9858Z" fill="url(#paint16_linear_129_3806)"/>
<path d="M162.041 93.0413C162.041 93.0413 164.446 90.7016 164.787 89.5527C165.128 88.4039 165.398 86.8122 163.471 85.9984C161.544 85.1786 159.019 84.6221 159.019 84.6221C159.019 84.6221 158.325 85.9624 159.91 86.3873L158.684 86.507C158.684 86.507 158.163 87.602 159.629 87.7636L158.331 88.1286C158.331 88.1286 158.289 89.2715 159.45 89.2476C160.617 89.2236 159.486 91.9044 162.041 93.0413Z" fill="url(#paint17_linear_129_3806)"/>
<path d="M144.538 67.293L141.373 76.4422C141.319 76.5918 141.385 76.7594 141.522 76.8372C142.384 77.3159 145.49 78.6922 149.236 76.3166C149.624 76.0712 149.894 75.6643 149.948 75.2096L150.971 67.293H144.538Z" fill="url(#paint18_linear_129_3806)"/>
<path d="M153.981 65.0307C153.981 65.0307 152.957 72.3668 151.048 74.2458C149.14 76.1247 145.765 73.4439 143.976 69.5006L145.992 62.2422L153.981 65.0307Z" fill="url(#paint19_linear_129_3806)"/>
<path d="M146.148 66.7902C146.309 66.8261 146.465 66.7065 146.477 66.5389C146.501 66.0303 146.585 65.025 146.896 64.3069C146.896 64.3069 146.627 63.6188 148.727 64.4865C150.833 65.3541 153.987 66.6287 155.656 65.5097C157.284 64.4206 158.552 59.6336 154.094 60.95C153.927 60.9979 153.753 60.8782 153.747 60.7047C153.723 59.9388 153.472 58.2094 151.653 57.8265C149.948 57.4734 149.122 58.3112 148.793 58.7958C148.697 58.9395 148.494 58.9574 148.374 58.8317C147.811 58.2393 146.327 57.0007 144.442 58.0718C142.887 58.9574 142.737 59.9866 142.827 60.6089C142.857 60.8124 142.665 60.968 142.474 60.9022C141.953 60.7226 141.139 60.6867 140.469 61.7279C139.542 63.17 141.181 64.1693 141.666 64.4206C141.744 64.4625 141.798 64.5403 141.81 64.6301C141.887 65.3242 142.3 68.3281 143.988 69.8779C144.131 70.0095 144.371 69.9437 144.43 69.7522L145.31 66.8561C145.352 66.7244 145.49 66.6406 145.627 66.6706L146.148 66.7902Z" fill="url(#paint20_linear_129_3806)"/>
<path d="M146.225 67.3463C146.225 67.3463 145.22 64.5219 144.233 65.5751C143.245 66.6282 144.825 68.561 146.1 68.8243L146.225 67.3463Z" fill="url(#paint21_linear_129_3806)"/>
<path d="M145.083 84.9274C144.999 84.9633 145.657 86.7584 147.345 92.6405C147.345 92.6405 147.398 92.838 147.47 93.0833C149.511 100.222 150.253 103.633 150.39 103.609C150.552 103.585 150.025 98.6782 148.266 92.9277C146.878 88.3741 145.202 84.8735 145.083 84.9274Z" fill="url(#paint22_linear_129_3806)"/>
<path d="M142.342 81.0735C141.809 81.235 141.797 84.8074 143.814 87.512C144.359 88.2421 145.418 89.6662 146.525 89.4927C147.895 89.2713 148.565 86.6982 148.619 85.0228C148.715 82.3181 147.291 79.8468 146.728 79.9545C146.267 80.0442 146.315 81.8573 145.98 81.8573C145.789 81.8573 145.651 81.2709 144.957 79.757C144.712 79.2185 144.592 78.9971 144.448 79.003C144.101 79.021 143.904 80.3674 143.892 80.4451C143.724 81.6359 144.011 82.354 143.808 82.4497C143.485 82.5993 142.725 80.9538 142.342 81.0735Z" fill="url(#paint23_linear_129_3806)"/>
<path d="M146.112 98.0858C146.112 98.0858 145.322 94.8246 145.639 93.6698C145.956 92.5149 146.579 91.0249 148.643 91.354C150.707 91.6831 153.143 92.5568 153.143 92.5568C153.143 92.5568 153.017 94.0647 151.449 93.58L152.425 94.334C152.425 94.334 152.287 95.5427 150.959 94.8964L151.862 95.8957C151.862 95.8957 151.294 96.8891 150.318 96.2488C149.349 95.6085 148.876 98.4748 146.112 98.0858Z" fill="url(#paint24_linear_129_3806)"/>
<path d="M13.7373 71.2716C14.21 70.2843 13.9946 70.2664 15.0417 69.9791C15.4965 69.8535 16.6215 73.1087 16.9446 72.8933C17.5729 72.4744 16.2804 73.9344 15.8136 74.5268C14.8203 75.7954 14.7007 77.7521 14.7126 79.3199C14.7366 82.1742 16.2684 84.448 18.632 85.9679C23.9756 89.4086 31.5032 79.4755 31.5032 79.4755L27.7693 91.3234C27.7693 91.3234 22.0009 95.578 15.293 89.5941C11.3856 86.1056 10.8171 80.744 12.5584 76.0168C12.6781 75.6877 12.9235 75.3167 12.9953 74.9696C13.2226 73.8387 13.1449 72.606 13.6475 71.4452C13.6774 71.3853 13.7073 71.3315 13.7373 71.2716Z" fill="url(#paint25_linear_129_3806)"/>
<path d="M32.4489 62.0747C32.4489 62.0747 30.8991 55.1275 38.8576 56.9645C38.8576 56.9645 42.7232 56.3362 42.9147 59.9804C42.9147 59.9804 45.4039 61.6199 43.5789 64.7794C43.5789 64.7794 50.9809 61.9191 54.2002 68.4056C57.4254 74.8921 54.4634 78.4584 51.3519 79.3919C51.3519 79.3919 53.8711 80.6545 52.6803 83.5088C51.4895 86.3631 45.4578 88.3736 41.8914 84.903C41.8914 84.903 31.7488 86.2434 31.9523 79.0808C31.9523 79.0808 27.237 76.035 32.1916 70.117C37.1522 64.187 32.4489 62.0747 32.4489 62.0747Z" fill="url(#paint26_linear_129_3806)"/>
<path d="M32.0119 78.1769C33.6096 77.6982 38.265 76.8126 42.693 80.8995C43.447 81.5936 43.7521 82.6468 43.4829 83.6341C42.2921 88.0143 39.1566 100.951 41.9091 106.552C41.9091 106.552 37.0622 111.896 31.7665 107.587C31.7665 107.587 29.391 97.2413 26.2854 92.6996C24.1372 89.5641 29.7081 80.9234 31.1143 78.8351C31.3357 78.5179 31.6469 78.2846 32.0119 78.1769Z" fill="url(#paint27_linear_129_3806)"/>
<path d="M36.4281 69.4766C36.4281 69.4766 38.7917 76.1665 38.9713 79.1165C38.9713 79.1165 36.3563 80.3073 33.897 78.2967C33.897 78.2967 33.6397 71.6128 33.2627 70.416L36.4281 69.4766Z" fill="url(#paint28_linear_129_3806)"/>
<path d="M33.1428 60.3518C33.1428 60.3518 26.9555 69.0104 30.6535 71.5236C34.3515 74.0368 38.7556 67.8855 38.7556 67.8855C38.7556 67.8855 40.1917 63.1463 38.6898 61.5426C37.1878 59.9329 33.1428 60.3518 33.1428 60.3518Z" fill="url(#paint29_linear_129_3806)"/>
<path d="M36.0031 58.2873C36.0031 58.2873 33.1607 58.9635 32.7658 60.2441C32.3649 61.5306 36.7929 62.7214 38.0376 62.7812L39.0369 67.9692C39.0369 67.9692 41.9929 63.0864 40.82 60.268C39.6532 57.4496 36.0031 58.2873 36.0031 58.2873Z" fill="url(#paint30_linear_129_3806)"/>
<path d="M37.5591 67.2505C37.5591 67.2505 39.9646 64.4621 40.922 66.2811C41.8794 68.1002 38.7558 69.4645 37.6728 68.5729L37.5591 67.2505Z" fill="url(#paint31_linear_129_3806)"/>
<path d="M25.5972 129.303C25.6151 129.769 24.7893 133.497 24.3406 135.484C24.161 136.286 24.2867 137.118 24.6936 137.83L40.2336 163.985C40.4191 164.302 40.5567 164.643 40.6405 165.002C40.9277 166.229 41.5141 169.239 41.209 171.973L40.4071 173.643L43.8837 172.853L44.6377 163.512L43.6504 162.914C42.8007 162.393 42.1365 161.621 41.7595 160.7C40.3533 157.289 36.8647 148.595 35.9671 144.364C34.9439 139.553 29.6003 135.64 29.6003 135.64L30.5398 133.42L25.5972 129.303Z" fill="url(#paint32_linear_129_3806)"/>
<path d="M47.7496 169.652C47.7496 169.652 45.8707 166.672 45.6493 165.517C45.4279 164.356 44.8116 162.309 43.6567 162.926C43.6567 162.926 43.1122 168.557 43.2977 170.753C43.4832 172.955 40.8084 172.883 40.8084 172.883C40.8084 172.883 40.0724 172.985 39.5338 173.529C39.1628 173.9 39.4261 174.546 39.9527 174.582C40.8263 174.636 42.2206 174.654 43.6806 174.373C44.1892 174.277 44.5662 173.84 44.6021 173.32L44.9851 166.839L47.3547 169.831L47.7496 169.652Z" fill="url(#paint33_linear_129_3806)"/>
<path d="M34.8782 133.474C34.8782 133.474 35.4287 156.871 35.5006 160.198C35.5724 163.519 34.974 170.885 31.647 173.087L33.0951 174.158C33.0951 174.158 34.9082 172.62 36.6794 169.652C38.666 166.325 39.2704 165.715 39.2704 165.715L38.6121 164.363C38.3249 163.77 38.2411 163.1 38.3728 162.46C39.0909 158.977 41.4904 147.386 42.1486 144.891C42.9205 141.947 42.9744 138.01 40.2876 134.719C37.5889 131.422 34.8782 133.474 34.8782 133.474Z" fill="url(#paint34_linear_129_3806)"/>
<path d="M37.9541 175.211C38.0558 175.211 38.1455 175.139 38.1575 175.037C38.2712 174.26 38.732 171.13 39.1089 170.322C39.5398 169.395 40.952 165.493 39.1089 165.158C39.1089 165.158 34.5193 171.866 33.6397 172.77C32.7601 173.673 31.6471 173.087 31.6471 173.087C31.6471 173.087 30.7914 173.338 30.1392 174.17C29.834 174.565 30.1152 175.139 30.6179 175.145L33.7115 175.175C34.6091 175.181 35.4169 174.637 35.752 173.805C36.2965 172.447 37.23 170.454 38.3191 169.568L37.7506 174.99C37.7386 175.103 37.8344 175.211 37.9541 175.211Z" fill="url(#paint35_linear_129_3806)"/>
<path d="M31.0368 105.062C31.0368 105.062 31.7309 107.282 30.6658 110.938L24.0237 134.126C23.922 134.491 24.1135 134.874 24.4725 134.999C26.4592 135.711 32.9875 137.728 41.9034 137.112C42.3522 137.082 42.7292 136.765 42.8249 136.322C43.4113 133.677 45.4159 124.659 45.8288 122.804C47.4026 115.743 49.1558 108.126 41.4367 103.524C37.8763 105.05 34.5553 105.954 31.0368 105.062Z" fill="url(#paint36_linear_129_3806)"/>
<path d="M43.3274 81.7731C43.3274 81.7731 50.885 88.0501 52.7579 96.6309C54.6308 105.212 41.7177 106.121 41.7177 106.121C41.7177 106.121 39.9645 104.165 37.8821 104.865C35.7997 105.565 37.7205 101.448 40.156 101.46C42.5914 101.472 41.4604 103.399 44.9071 101.837C48.264 100.317 50.3404 95.6137 41.7776 88.4869C41.2809 88.074 40.886 87.5474 40.6466 86.9491C38.9831 82.7544 40.3056 80.0078 43.3274 81.7731Z" fill="url(#paint37_linear_129_3806)"/>
<path d="M13.151 75.4969C8.61526 70.0397 8.72895 67.8077 11.2422 69.8123L13.151 75.4969Z" fill="url(#paint38_linear_129_3806)"/>
<path d="M18.9312 77.6626L16.777 67.2927C16.753 67.173 16.6872 67.0892 16.6094 67.0773C16.2684 67.0234 15.287 66.8738 14.1561 66.7541C12.7917 66.6105 11.206 66.5028 10.2666 66.6584C10.1349 66.6823 10.0571 66.9097 10.123 67.1012C10.7094 68.8245 13.1149 75.8436 14.2817 78.1294C14.3176 78.2072 14.3775 78.2491 14.4373 78.2431L18.7576 78.0576C18.8833 78.0516 18.973 77.8601 18.9312 77.6626Z" fill="url(#paint39_linear_129_3806)"/>
<path d="M17.8362 76.0824L16.2146 68.2795C16.1967 68.1897 16.1488 68.1299 16.089 68.1179C15.8316 68.076 15.0956 67.9623 14.2399 67.8726C13.2107 67.7649 12.02 67.6811 11.3139 67.8008C11.2121 67.8187 11.1583 67.9923 11.2061 68.1359C11.649 69.4344 13.4561 74.7121 14.3357 76.4354C14.3656 76.4953 14.4075 76.5252 14.4554 76.5252L17.7046 76.3876C17.8063 76.3756 17.8721 76.226 17.8362 76.0824Z" fill="#91B3FA"/>
<defs>
<linearGradient id="paint0_linear_129_3806" x1="185.216" y1="174.874" x2="63.3451" y2="68.2367" gradientUnits="userSpaceOnUse">
<stop stop-color="#DAE3FE"/>
<stop offset="1" stop-color="#E9EFFD"/>
</linearGradient>
<linearGradient id="paint1_linear_129_3806" x1="42.6241" y1="244.074" x2="90.1047" y2="103.661" gradientUnits="userSpaceOnUse">
<stop stop-color="#09005D"/>
<stop offset="1" stop-color="#1A0F91"/>
</linearGradient>
<linearGradient id="paint2_linear_129_3806" x1="54.6606" y1="73.1782" x2="117.117" y2="73.1782" gradientUnits="userSpaceOnUse">
<stop stop-color="#DAE3FE"/>
<stop offset="1" stop-color="#E9EFFD"/>
</linearGradient>
<linearGradient id="paint3_linear_129_3806" x1="89.5854" y1="1.88261" x2="81.4691" y2="62.7552" gradientUnits="userSpaceOnUse">
<stop stop-color="#FF928E"/>
<stop offset="1" stop-color="#FE7062"/>
</linearGradient>
<linearGradient id="paint4_linear_129_3806" x1="105.357" y1="3.98563" x2="97.2405" y2="64.8582" gradientUnits="userSpaceOnUse">
<stop stop-color="#FF928E"/>
<stop offset="1" stop-color="#FE7062"/>
</linearGradient>
<linearGradient id="paint5_linear_129_3806" x1="121.127" y1="6.0881" x2="113.011" y2="66.9606" gradientUnits="userSpaceOnUse">
<stop stop-color="#FF928E"/>
<stop offset="1" stop-color="#FE7062"/>
</linearGradient>
<linearGradient id="paint6_linear_129_3806" x1="153.321" y1="91.2656" x2="164.787" y2="91.2656" gradientUnits="userSpaceOnUse">
<stop stop-color="#FEBBBA"/>
<stop offset="1" stop-color="#FF928E"/>
</linearGradient>
<linearGradient id="paint7_linear_129_3806" x1="155.741" y1="146.634" x2="156.043" y2="179.875" gradientUnits="userSpaceOnUse">
<stop stop-color="#4F52FF"/>
<stop offset="1" stop-color="#4042E2"/>
</linearGradient>
<linearGradient id="paint8_linear_129_3806" x1="148.817" y1="168.232" x2="152.582" y2="168.232" gradientUnits="userSpaceOnUse">
<stop stop-color="#FEBBBA"/>
<stop offset="1" stop-color="#FF928E"/>
</linearGradient>
<linearGradient id="paint9_linear_129_3806" x1="203.928" y1="88.5201" x2="166.998" y2="120.986" gradientUnits="userSpaceOnUse">
<stop stop-color="#4F52FF"/>
<stop offset="1" stop-color="#4042E2"/>
</linearGradient>
<linearGradient id="paint10_linear_129_3806" x1="137.236" y1="146.801" x2="137.539" y2="180.042" gradientUnits="userSpaceOnUse">
<stop stop-color="#4F52FF"/>
<stop offset="1" stop-color="#4042E2"/>
</linearGradient>
<linearGradient id="paint11_linear_129_3806" x1="135.251" y1="168.039" x2="138.501" y2="168.039" gradientUnits="userSpaceOnUse">
<stop stop-color="#FEBBBA"/>
<stop offset="1" stop-color="#FF928E"/>
</linearGradient>
<linearGradient id="paint12_linear_129_3806" x1="199.747" y1="83.7635" x2="162.817" y2="116.229" gradientUnits="userSpaceOnUse">
<stop stop-color="#4F52FF"/>
<stop offset="1" stop-color="#4042E2"/>
</linearGradient>
<linearGradient id="paint13_linear_129_3806" x1="-25.4254" y1="-240.928" x2="-63.9779" y2="-317.221" gradientUnits="userSpaceOnUse">
<stop stop-color="#4F52FF"/>
<stop offset="1" stop-color="#4042E2"/>
</linearGradient>
<linearGradient id="paint14_linear_129_3806" x1="-34.0855" y1="-236.554" x2="-72.638" y2="-312.848" gradientUnits="userSpaceOnUse">
<stop stop-color="#4F52FF"/>
<stop offset="1" stop-color="#4042E2"/>
</linearGradient>
<linearGradient id="paint15_linear_129_3806" x1="123.033" y1="97.2667" x2="147.37" y2="97.2667" gradientUnits="userSpaceOnUse">
<stop stop-color="#FEBBBA"/>
<stop offset="1" stop-color="#FF928E"/>
</linearGradient>
<linearGradient id="paint16_linear_129_3806" x1="154.432" y1="77.1542" x2="160.837" y2="92.1813" gradientUnits="userSpaceOnUse">
<stop stop-color="#020039"/>
<stop offset="1" stop-color="#090056"/>
</linearGradient>
<linearGradient id="paint17_linear_129_3806" x1="164.295" y1="90.4774" x2="157.872" y2="86.4496" gradientUnits="userSpaceOnUse">
<stop stop-color="#FEBBBA"/>
<stop offset="1" stop-color="#FF928E"/>
</linearGradient>
<linearGradient id="paint18_linear_129_3806" x1="141.353" y1="72.4838" x2="150.975" y2="72.4838" gradientUnits="userSpaceOnUse">
<stop stop-color="#FEBBBA"/>
<stop offset="1" stop-color="#FF928E"/>
</linearGradient>
<linearGradient id="paint19_linear_129_3806" x1="151.053" y1="72.2188" x2="146.27" y2="60.7869" gradientUnits="userSpaceOnUse">
<stop stop-color="#FEBBBA"/>
<stop offset="1" stop-color="#FF928E"/>
</linearGradient>
<linearGradient id="paint20_linear_129_3806" x1="141.863" y1="38.3291" x2="146.599" y2="55.0893" gradientUnits="userSpaceOnUse">
<stop stop-color="#020039"/>
<stop offset="1" stop-color="#090056"/>
</linearGradient>
<linearGradient id="paint21_linear_129_3806" x1="147.391" y1="72.5376" x2="143.088" y2="62.2523" gradientUnits="userSpaceOnUse">
<stop stop-color="#FEBBBA"/>
<stop offset="1" stop-color="#FF928E"/>
</linearGradient>
<linearGradient id="paint22_linear_129_3806" x1="147.632" y1="94.2978" x2="148.595" y2="94.0328" gradientUnits="userSpaceOnUse">
<stop stop-color="#020039"/>
<stop offset="1" stop-color="#090056"/>
</linearGradient>
<linearGradient id="paint23_linear_129_3806" x1="201.478" y1="2.44191" x2="172.259" y2="45.0527" gradientUnits="userSpaceOnUse">
<stop stop-color="#FF928E"/>
<stop offset="1" stop-color="#FE7062"/>
</linearGradient>
<linearGradient id="paint24_linear_129_3806" x1="145.563" y1="94.7149" x2="153.145" y2="94.7149" gradientUnits="userSpaceOnUse">
<stop stop-color="#FEBBBA"/>
<stop offset="1" stop-color="#FF928E"/>
</linearGradient>
<linearGradient id="paint25_linear_129_3806" x1="10.4562" y1="64.1944" x2="27.9565" y2="92.2415" gradientUnits="userSpaceOnUse">
<stop stop-color="#FEBBBA"/>
<stop offset="1" stop-color="#FF928E"/>
</linearGradient>
<linearGradient id="paint26_linear_129_3806" x1="1203.07" y1="-638.917" x2="1166.04" y2="-616.253" gradientUnits="userSpaceOnUse">
<stop stop-color="#020039"/>
<stop offset="1" stop-color="#090056"/>
</linearGradient>
<linearGradient id="paint27_linear_129_3806" x1="100.694" y1="20.0561" x2="69.8517" y2="54.9563" gradientUnits="userSpaceOnUse">
<stop stop-color="#FF928E"/>
<stop offset="1" stop-color="#FE7062"/>
</linearGradient>
<linearGradient id="paint28_linear_129_3806" x1="32.666" y1="82.4309" x2="36.434" y2="74.0628" gradientUnits="userSpaceOnUse">
<stop stop-color="#FEBBBA"/>
<stop offset="1" stop-color="#FF928E"/>
</linearGradient>
<linearGradient id="paint29_linear_129_3806" x1="32.4718" y1="62.0953" x2="40.1186" y2="78.6508" gradientUnits="userSpaceOnUse">
<stop stop-color="#FEBBBA"/>
<stop offset="1" stop-color="#FF928E"/>
</linearGradient>
<linearGradient id="paint30_linear_129_3806" x1="1197.96" y1="-647.276" x2="1160.92" y2="-624.613" gradientUnits="userSpaceOnUse">
<stop stop-color="#020039"/>
<stop offset="1" stop-color="#090056"/>
</linearGradient>
<linearGradient id="paint31_linear_129_3806" x1="36.0697" y1="60.4327" x2="43.7165" y2="76.9881" gradientUnits="userSpaceOnUse">
<stop stop-color="#FEBBBA"/>
<stop offset="1" stop-color="#FF928E"/>
</linearGradient>
<linearGradient id="paint32_linear_129_3806" x1="53.8096" y1="186.64" x2="25.7367" y2="135.969" gradientUnits="userSpaceOnUse">
<stop stop-color="#FEBBBA"/>
<stop offset="1" stop-color="#FF928E"/>
</linearGradient>
<linearGradient id="paint33_linear_129_3806" x1="47.7552" y1="168.762" x2="39.4094" y2="168.682" gradientUnits="userSpaceOnUse">
<stop stop-color="#4F52FF"/>
<stop offset="1" stop-color="#4042E2"/>
</linearGradient>
<linearGradient id="paint34_linear_129_3806" x1="44.3392" y1="143.858" x2="87.3557" y2="102.465" gradientUnits="userSpaceOnUse">
<stop stop-color="#FEBBBA"/>
<stop offset="1" stop-color="#FF928E"/>
</linearGradient>
<linearGradient id="paint35_linear_129_3806" x1="40.0032" y1="170.196" x2="30.0543" y2="170.101" gradientUnits="userSpaceOnUse">
<stop stop-color="#4F52FF"/>
<stop offset="1" stop-color="#4042E2"/>
</linearGradient>
<linearGradient id="paint36_linear_129_3806" x1="93.2027" y1="21.3381" x2="24.4611" y2="142.768" gradientUnits="userSpaceOnUse">
<stop stop-color="#4F52FF"/>
<stop offset="1" stop-color="#4042E2"/>
</linearGradient>
<linearGradient id="paint37_linear_129_3806" x1="51.1138" y1="108.465" x2="10.8752" y2="48.804" gradientUnits="userSpaceOnUse">
<stop stop-color="#FEBBBA"/>
<stop offset="1" stop-color="#FF928E"/>
</linearGradient>
<linearGradient id="paint38_linear_129_3806" x1="13.0066" y1="69.2519" x2="10.3879" y2="74.1993" gradientUnits="userSpaceOnUse">
<stop stop-color="#FEBBBA"/>
<stop offset="1" stop-color="#FF928E"/>
</linearGradient>
<linearGradient id="paint39_linear_129_3806" x1="18.2682" y1="62.8394" x2="13.3153" y2="75.4183" gradientUnits="userSpaceOnUse">
<stop stop-color="#020039"/>
<stop offset="1" stop-color="#090056"/>
</linearGradient>
</defs>
</svg>
