<svg width="151" height="175" viewBox="0 0 151 175" fill="none" xmlns="http://www.w3.org/2000/svg">
<g clip-path="url(#clip0_129_3675)">
<path d="M150 107.7C148.5 115.9 144.8 122.6 138.8 127C137.8 127.8 136.8 128.4 135.9 129.1C127.5 134.9 122.4 136.4 95.6 140.3C65.9 144.6 57.6 160.6 29.4 155.6C1.19998 150.7 -8.10002 122 7.49998 89.4005C19.3 64.8005 12 45.2005 25.9 25.0005C38.1 7.20048 55.4 5.90047 66.7 4.70047C99.9 1.20047 122.5 25.9005 138.5 56.5005C148.5 75.7005 152.5 93.9005 150 107.7Z" fill="url(#paint0_linear_129_3675)"/>
<mask id="mask0_129_3675" style="mask-type:alpha" maskUnits="userSpaceOnUse" x="-1" y="4" width="152" height="153">
<path d="M150 107.7C148.5 115.9 144.8 122.6 138.8 127C137.8 127.8 136.8 128.4 135.9 129.1C127.5 134.9 122.4 136.4 95.6 140.3C65.9 144.6 57.6 160.6 29.4 155.6C1.19998 150.7 -8.10002 122 7.49998 89.4005C19.3 64.8005 12 45.2005 25.9 25.0005C38.1 7.20048 55.4 5.90047 66.7 4.70047C99.9 1.20047 122.5 25.9005 138.5 56.5005C148.5 75.7005 152.5 93.9005 150 107.7Z" fill="url(#paint1_linear_129_3675)"/>
</mask>
<g mask="url(#mask0_129_3675)">
<path d="M45.8995 114.4C45.8995 114.4 44.3995 102.8 44.9995 98.7C45.8995 93 49.9995 82.1 49.9995 82.1L48.0995 78L38.6995 83.4L32.9995 103.1L35.3995 117.7L45.8995 114.4Z" fill="url(#paint2_linear_129_3675)"/>
<path d="M43.1998 115.3C43.1998 115.3 41.6998 103.7 42.2998 99.5998C43.1998 93.8998 47.2998 82.9998 47.2998 82.9998L45.3998 78.7998L35.9998 84.1998L30.2998 103.9L32.6998 118.5L43.1998 115.3Z" fill="url(#paint3_linear_129_3675)"/>
<path d="M40.6997 115.1C40.6997 115.1 39.1997 103.5 39.7997 99.3996C40.6997 93.6996 44.7997 82.7996 44.7997 82.7996L42.8997 78.5996L33.3997 83.9996L27.6997 103.7L30.0997 118.3L40.6997 115.1Z" fill="url(#paint4_linear_129_3675)"/>
<path d="M108.3 118.9L56.0997 134.4C53.4997 135.2 50.6997 133.7 49.9997 131.1L19.4997 28.2999C18.6997 25.6999 20.1997 22.8999 22.7997 22.1999L75.0997 6.69986C77.6997 5.89986 80.4997 7.39986 81.1997 9.99986L111.6 112.7C112.4 115.3 110.9 118.1 108.3 118.9Z" fill="url(#paint5_linear_129_3675)"/>
<path d="M104.3 108.6L53.7996 123.6C52.5996 124 51.1996 123.3 50.8996 122L23.0996 28.1998C22.6996 26.9998 23.3996 25.5998 24.6996 25.2998L75.1996 10.2998C76.3996 9.8998 77.7996 10.5998 78.0996 11.8998L105.9 105.7C106.3 106.9 105.6 108.2 104.3 108.6Z" fill="#D6EDFC"/>
<path d="M84.5998 120.3C85.2998 122.5 83.9998 124.8 81.7998 125.5C79.5998 126.2 77.2998 124.9 76.5998 122.7C75.8998 120.5 77.1998 118.2 79.3998 117.5C81.6998 116.8 83.9998 118.1 84.5998 120.3Z" fill="#80B0D8"/>
<path d="M32.5 50.8996L38.1 69.8996L47.1 67.1996C52.8 65.4996 58.8 68.7996 60.5 74.4996L63.1 83.1996L82.1 77.5996L76.5 58.5996L72.3 44.3996L70.9 39.5996L32.5 50.8996Z" fill="#BDDDEF"/>
<path d="M71.767 91.3904L52.7827 97.0156L58.4079 116L77.3921 110.375L71.767 91.3904Z" fill="#BDDDEF"/>
<path d="M50.1618 97.8362L44.2173 99.5977L49.8425 118.582L55.787 116.82L50.1618 97.8362Z" fill="#BDDDEF"/>
<path d="M42.8999 94.8994L91.8999 80.3994L71.4999 11.3994" stroke="#A3C1D8" stroke-width="5.5514" stroke-miterlimit="10"/>
<path d="M37.1997 75.9996L47.1997 72.9996C50.6997 71.9996 54.4997 73.9996 55.4997 77.4996L59.1997 90.0996" stroke="#A3C1D8" stroke-width="5.5514" stroke-miterlimit="10"/>
<path d="M75.2998 85.2998L83.9998 114.6" stroke="#A3C1D8" stroke-width="5.5514" stroke-miterlimit="10"/>
<path d="M42.8999 94.8998L44.8999 94.2998" stroke="#749AB2" stroke-width="0.6939" stroke-miterlimit="10"/>
<path d="M46.1997 93.8992L89.2997 81.1992" stroke="#749AB2" stroke-width="0.6939" stroke-miterlimit="10" stroke-dasharray="4.27 4.27"/>
<path d="M89.8999 80.9994L91.8999 80.3994L91.2999 78.3994" stroke="#749AB2" stroke-width="0.6939" stroke-miterlimit="10"/>
<path d="M90.8998 77.099L72.2998 13.999" stroke="#749AB2" stroke-width="0.6939" stroke-miterlimit="10" stroke-dasharray="4.15 4.15"/>
<path d="M72.1 13.3994L71.5 11.3994" stroke="#749AB2" stroke-width="0.6939" stroke-miterlimit="10"/>
<path d="M37.1997 75.9994L39.1997 75.3994" stroke="#749AB2" stroke-width="0.6939" stroke-miterlimit="10"/>
<path d="M40.5996 74.9996L47.2996 72.9996C50.7996 71.9996 54.5996 73.9996 55.5996 77.4996L58.4996 87.3996" stroke="#749AB2" stroke-width="0.6939" stroke-miterlimit="10" stroke-dasharray="4.26 4.26"/>
<path d="M58.6997 88.0996L59.2997 90.0996" stroke="#749AB2" stroke-width="0.6939" stroke-miterlimit="10"/>
<path d="M75.2998 85.2998L75.8998 87.2998" stroke="#749AB2" stroke-width="0.6939" stroke-miterlimit="10"/>
<path d="M76.2998 88.5L83.1998 112" stroke="#749AB2" stroke-width="0.6939" stroke-miterlimit="10" stroke-dasharray="3.77 3.77"/>
<path d="M83.3999 112.6L83.9999 114.6" stroke="#749AB2" stroke-width="0.6939" stroke-miterlimit="10"/>
<path opacity="0.5" d="M71.0869 65.0431C71.3118 61.1281 68.3204 57.7721 64.4054 57.5473C60.4905 57.3224 57.1345 60.3138 56.9096 64.2287C56.6847 68.1437 59.6761 71.4997 63.5911 71.7245C67.506 71.9494 70.862 68.958 71.0869 65.0431Z" fill="black"/>
<path d="M68.0999 63.3998C68.7999 65.6998 67.4999 68.0998 65.1999 68.6998C62.8999 69.3998 60.4999 68.0998 59.8999 65.7998C59.1999 63.4998 60.4999 61.0998 62.7999 60.4998C64.9999 59.8998 67.3999 61.1998 68.0999 63.3998Z" fill="#FFC729" stroke="black" stroke-width="1.7801" stroke-miterlimit="10"/>
<path d="M66.2999 95.3002C66.2999 95.4002 66.2999 95.4002 66.2999 95.4002C65.8999 97.2002 64.7999 99.5002 63.4999 102.2C61.9999 105.2 60.1999 108.6 58.6999 112.4C54.8999 121.7 55.4999 128.3 51.2999 135.3C50.2999 136.9 49.2999 138.4 48.1999 139.7C44.4999 144.3 41.2999 149.3 39.5999 155.2C37.6999 161.4 36.5999 170.2 35.5999 174.4L13.3999 167.1C13.3999 167.1 19.3999 148.5 21.3999 137.6C23.4999 126.7 21.3999 108.8 21.4999 102.6C21.4999 96.4002 35.0999 80.7002 35.0999 80.7002L38.1999 91.0002C38.1999 91.0002 36.0999 98.0002 35.8999 103.7C35.7999 105.7 36.3999 108.9 36.9999 111.5C37.5999 114 40.5999 115.1 42.4999 113.3C43.4999 112.4 44.6999 111.1 45.9999 109.2C50.7999 102.2 51.8999 97.0002 59.1999 92.5002C59.1999 92.5002 64.6999 89.6002 66.2999 92.7002C66.4999 93.5002 66.4999 94.4002 66.2999 95.3002Z" fill="url(#paint6_linear_129_3675)"/>
<path d="M66.2998 95.2999C66.2998 95.3999 66.2998 95.3999 66.2998 95.3999C65.8998 97.1999 64.7998 99.4998 63.4998 102.2C62.6998 101 60.8998 100.3 60.0998 100.1C59.8998 99.9998 59.7998 99.7998 59.7998 99.5998C60.2998 97.1998 62.7998 92.5998 64.6998 92.6998C66.4998 92.7998 66.3998 94.7999 66.2998 95.2999Z" fill="url(#paint7_linear_129_3675)"/>
</g>
<path d="M87.5001 23.5C87.5001 9.69996 75.5001 -1.40004 61.4001 0.0999605C50.6001 1.29996 41.9001 9.99996 40.6001 20.7C39.9001 26.5 41.4001 31.9 44.2001 36.3L44.4001 36.6C44.4001 36.6 44.4001 36.7 44.5001 36.7L62.9001 64.1C63.4001 64.9 64.5001 64.9 65.0001 64.1L83.7001 36.3C86.1001 32.6 87.5001 28.2 87.5001 23.5ZM64.0001 17.8C67.1001 17.8 69.7001 20.3 69.7001 23.5C69.7001 26.6 67.2001 29.2 64.0001 29.2C60.9001 29.2 58.3001 26.7 58.3001 23.5C58.3001 20.4 60.8001 17.8 64.0001 17.8Z" fill="#F4454E"/>
<path d="M150 107.7C148.5 115.9 144.8 122.6 138.8 127C137.8 127.8 136.8 128.4 135.9 129.1C131.4 124.2 124.1 116.7 120.4 115.2C114.9 112.9 111.7 115 107.1 113.7C105.3 113.2 101.8 111.5 98.3999 109.3C93.1999 106.1 87.9999 101.8 87.9999 98.8C87.9999 96.3 88.1999 91.6 88.4999 87.5C88.7999 83.4 88.9999 80 88.9999 80L78.3999 66.7C78.3999 66.7 65.6999 55.8 62.4999 52.7C59.1999 49.6 58.3999 46.1 58.3999 46.1C57.4999 42.8 59.0999 41.8 61.2999 42H61.3999C61.3999 42 61.3999 42 61.5999 42C63.0999 42.2 64.7999 42.9 66.2999 43.8C66.7999 44.1 67.4999 44.6 68.4999 45.1C74.0999 48.6 86.5999 56.8 88.4999 58.9C89.1999 59.7 91.2999 62.1 93.7999 65C94.6999 63.3 95.8999 61.6 96.8999 61.8C97.3999 61.9 99.5999 62.2 102.5 62.6C103.3 61.8 104.6 60.6 105.4 60.4C106.4 60.2 110.9 62.6 113.2 63.9C114 63.2 114.9 62.4 115.5 62.3C116.6 62 121.4 64.7 123.4 65.8C123.7 66 124 66.1 124.2 66.3C125.4 67.1 126.3 68.6 127.8 75.7C129.8 84.8 133.8 93.5 138.3 98.2C140.3 100.6 145.4 104.4 150 107.7Z" fill="url(#paint8_linear_129_3675)"/>
<path d="M68.2998 45.2004C67.6998 47.5004 66.2998 48.6004 65.6998 49.0004C65.4998 49.1004 65.1998 49.1004 64.9998 49.0004C63.3998 48.1004 58.9998 45.7004 59.2998 43.5004C59.5998 42.0004 60.8998 41.9004 61.1998 41.9004H61.2998C61.2998 41.9004 61.3998 41.9004 61.4998 41.9004C62.9998 42.1004 64.6998 42.8004 66.1998 43.7004C66.5998 44.2004 67.3998 44.6004 68.2998 45.2004Z" fill="url(#paint9_linear_129_3675)"/>
<path d="M99.8001 103.501C99.8001 103.501 99.4001 106.701 98.5001 109.401C93.3001 106.201 88.1001 101.901 88.1001 98.9006C88.1001 96.4006 88.3001 91.7006 88.6001 87.6006C88.9001 83.5006 89.1001 80.1006 89.1001 80.1006C89.1001 80.1006 89.7001 80.7006 90.4001 81.6006C93.4001 85.0006 95.7001 88.9006 97.1001 93.2006C97.6001 94.7006 98.0001 95.9006 98.1001 96.1006C98.3001 96.8006 99.8001 103.501 99.8001 103.501Z" fill="url(#paint10_linear_129_3675)"/>
<path d="M31.8001 19.5L30.0001 23.6L25.1001 35L23.0001 40L19.5001 28.3C18.7001 25.7 20.2001 22.9 22.8001 22.2L31.8001 19.5Z" fill="url(#paint11_linear_129_3675)"/>
<path d="M30.1002 23.5996L25.2002 34.9996L23.2002 28.0996C22.8002 26.7996 23.5002 25.4996 24.8002 25.1996L30.1002 23.5996Z" fill="#D6EDFC"/>
<path d="M108.6 44.7998C111.914 44.7998 114.6 42.1135 114.6 38.7998C114.6 35.4861 111.914 32.7998 108.6 32.7998C105.286 32.7998 102.6 35.4861 102.6 38.7998C102.6 42.1135 105.286 44.7998 108.6 44.7998Z" fill="#CFEEFF"/>
</g>
<defs>
<linearGradient id="paint0_linear_129_3675" x1="75.3502" y1="9.00057" x2="75.3502" y2="140.577" gradientUnits="userSpaceOnUse">
<stop offset="0.00537634" stop-color="#EDF6FF"/>
<stop offset="1" stop-color="#BFE8F9"/>
</linearGradient>
<linearGradient id="paint1_linear_129_3675" x1="75.3502" y1="9.00057" x2="75.3502" y2="140.577" gradientUnits="userSpaceOnUse">
<stop offset="0.00537634" stop-color="#EDF6FF"/>
<stop offset="1" stop-color="#BFE8F9"/>
</linearGradient>
<linearGradient id="paint2_linear_129_3675" x1="42.3005" y1="100.549" x2="44.8594" y2="125.062" gradientUnits="userSpaceOnUse">
<stop offset="0.00537634" stop-color="#FFD0BE"/>
<stop offset="0.8465" stop-color="#FF9F8B"/>
<stop offset="1" stop-color="#FF9581"/>
</linearGradient>
<linearGradient id="paint3_linear_129_3675" x1="38.5194" y1="90.725" x2="40.6841" y2="118.793" gradientUnits="userSpaceOnUse">
<stop offset="0.00537634" stop-color="#FFD0BE"/>
<stop offset="0.8465" stop-color="#FF9F8B"/>
<stop offset="1" stop-color="#FF9581"/>
</linearGradient>
<linearGradient id="paint4_linear_129_3675" x1="37.2962" y1="81.5814" x2="34.1999" y2="115.912" gradientUnits="userSpaceOnUse">
<stop offset="0.00537634" stop-color="#FFD0BE"/>
<stop offset="0.8465" stop-color="#FF9F8B"/>
<stop offset="1" stop-color="#FF9581"/>
</linearGradient>
<linearGradient id="paint5_linear_129_3675" x1="29.0879" y1="13.8571" x2="97.1898" y2="119.616" gradientUnits="userSpaceOnUse">
<stop offset="0.00537634" stop-color="#003177"/>
<stop offset="1" stop-color="#003154"/>
</linearGradient>
<linearGradient id="paint6_linear_129_3675" x1="44.518" y1="95.2238" x2="31.472" y2="169.649" gradientUnits="userSpaceOnUse">
<stop offset="0.00537634" stop-color="#FFD0BE"/>
<stop offset="0.8465" stop-color="#FF9F8B"/>
<stop offset="1" stop-color="#FF9581"/>
</linearGradient>
<linearGradient id="paint7_linear_129_3675" x1="60.8159" y1="102.21" x2="65.7893" y2="92.5341" gradientUnits="userSpaceOnUse">
<stop offset="0.00537634" stop-color="#FFD0BE"/>
<stop offset="0.8465" stop-color="#FF9F8B"/>
<stop offset="1" stop-color="#FF9581"/>
</linearGradient>
<linearGradient id="paint8_linear_129_3675" x1="84.4157" y1="39.2317" x2="132.51" y2="131.787" gradientUnits="userSpaceOnUse">
<stop offset="0.00537634" stop-color="#FFD0BE"/>
<stop offset="0.8465" stop-color="#FF9F8B"/>
<stop offset="1" stop-color="#FF9581"/>
</linearGradient>
<linearGradient id="paint9_linear_129_3675" x1="60.0469" y1="46.5325" x2="67.9948" y2="44.1775" gradientUnits="userSpaceOnUse">
<stop offset="0.00537634" stop-color="#FFD0BE"/>
<stop offset="0.8465" stop-color="#FF9F8B"/>
<stop offset="1" stop-color="#FF9581"/>
</linearGradient>
<linearGradient id="paint10_linear_129_3675" x1="92.9228" y1="103.319" x2="95.3394" y2="84.2355" gradientUnits="userSpaceOnUse">
<stop offset="0.00537634" stop-color="#FF9581" stop-opacity="0"/>
<stop offset="0.9713" stop-color="#FF9581" stop-opacity="0.9711"/>
<stop offset="1" stop-color="#FF9581"/>
</linearGradient>
<linearGradient id="paint11_linear_129_3675" x1="23.5881" y1="16.7526" x2="58.8382" y2="137.502" gradientUnits="userSpaceOnUse">
<stop offset="0.00537634" stop-color="#003177"/>
<stop offset="1" stop-color="#003154"/>
</linearGradient>
<clipPath id="clip0_129_3675">
<rect width="150.7" height="174.5" fill="white"/>
</clipPath>
</defs>
</svg>
