<svg width="52" height="52" viewBox="0 0 52 52" fill="none" xmlns="http://www.w3.org/2000/svg">
<circle cx="26" cy="26" r="26" fill="#B950EE" fill-opacity="0.1"/>
<circle cx="26" cy="26" r="22" fill="url(#paint0_linear_129_4137)"/>
<path fill-rule="evenodd" clip-rule="evenodd" d="M35.0365 17.4364C34.6999 24.4549 31.987 28.0742 29.1706 29.9324C29.9151 34.0308 25.5383 35.261 24.3211 35.494C23.0909 35.7142 22.7154 35.2739 23.201 34.3739C23.583 33.6682 23.5895 32.3798 23.5765 31.8489C22.8902 31.9007 22.4629 31.8748 22.4629 31.8748L21.5306 30.9424L20.5982 30.0101C20.5982 30.0101 20.5659 29.5892 20.6241 28.8964C20.0932 28.8835 18.8048 28.89 18.099 29.272C17.1991 29.7576 16.7588 29.382 16.9789 28.1519C17.1991 26.9217 18.4357 22.5514 22.5341 23.2959C24.3923 20.4795 28.0116 17.7666 35.0365 17.4364ZM27.921 21.9363C27.1699 22.6873 27.1764 23.8981 27.921 24.6427C28.6656 25.3872 29.8763 25.3937 30.6274 24.6427C31.3784 23.8916 31.3784 22.6873 30.6274 21.9363C29.8763 21.1852 28.672 21.1852 27.921 21.9363ZM18.9475 33.4916C19.8086 33.7182 20.223 33.3427 20.6633 32.9024C21.11 32.4556 21.3755 32.5657 21.369 32.8571C21.233 35.7383 17.3418 35.0973 17.3418 35.0973C17.3418 35.0973 16.6943 31.2125 19.582 31.0701C19.8669 31.0701 19.977 31.3355 19.5367 31.7758C19.0964 32.2161 18.7209 32.6305 18.9475 33.4916Z" fill="white"/>
<defs>
<linearGradient id="paint0_linear_129_4137" x1="7.5" y1="7" x2="40.5" y2="43.5" gradientUnits="userSpaceOnUse">
<stop stop-color="#BF5AF2"/>
<stop offset="1" stop-color="#940FD7"/>
</linearGradient>
</defs>
</svg>
