<svg width="60" height="60" viewBox="0 0 60 60" fill="none" xmlns="http://www.w3.org/2000/svg">
<circle cx="30" cy="30" r="30" fill="#93A9C0" fill-opacity="0.1"/>
<circle cx="30" cy="30" r="26" fill="url(#paint0_linear_129_4133)"/>
<path d="M36.4363 21.2691L30.0002 27.7052L23.5641 21.2691C22.9159 20.621 21.9177 20.621 21.2696 21.2691C20.6215 21.9172 20.6215 22.9155 21.2696 23.5636L27.7057 29.9997L21.2696 36.4358C21.1288 36.5766 21.0013 36.7392 20.9121 36.9398C20.8219 37.1428 20.7835 37.3563 20.7835 37.583C20.7835 38.033 20.9359 38.4507 21.2425 38.7573C21.5491 39.0639 21.9668 39.2163 22.4168 39.2163C22.6435 39.2163 22.857 39.1779 23.06 39.0877C23.2606 38.9985 23.4233 38.8711 23.5641 38.7303L30.0002 32.2942L36.4363 38.7303C36.5771 38.8711 36.7397 38.9985 36.9403 39.0877C37.1433 39.1779 37.3568 39.2163 37.5835 39.2163C37.8102 39.2163 38.0237 39.1779 38.2267 39.0877C38.4273 38.9985 38.5899 38.8711 38.7307 38.7303C39.3789 38.0821 39.3789 37.0839 38.7307 36.4358L32.2946 29.9997L38.7307 23.5636C39.3789 22.9155 39.3789 21.9172 38.7307 21.2691C38.0826 20.621 37.0844 20.621 36.4363 21.2691Z" fill="white" stroke="white" stroke-width="1.1"/>
<defs>
<linearGradient id="paint0_linear_129_4133" x1="17" y1="6.5" x2="41.5" y2="53.5" gradientUnits="userSpaceOnUse">
<stop stop-color="#93A9C0"/>
<stop offset="1" stop-color="#7291AF"/>
</linearGradient>
</defs>
</svg>
