<svg xmlns="http://www.w3.org/2000/svg" width="80" height="80" fill="none">
  <g filter="url(#a)">
    <circle cx="40" cy="40" r="32" fill="#242A38"/>
  </g>
  <path fill="#ffffff" d="M39.599 30.25c.158-.333.369-.333.527 0 .475 1.002 1.689 2.838 3.904 3.116 2.11.278 3.43-.835 4.063-1.614.264-.278.475-.222.527.167.211 1.78.475 6.231-1.16 10.181-1.794 4.395-5.382 6.787-7.44 7.9h-.263c-2.058-1.113-5.645-3.505-7.439-7.9-1.635-3.839-1.372-8.345-1.16-10.125.052-.39.263-.445.527-.167.633.723 1.952 1.892 4.062 1.613 2.216-.333 3.377-2.17 3.852-3.17Z"/>
  <defs>
    <filter id="a" width="80" height="80" x="0" y="0" color-interpolation-filters="sRGB" filterUnits="userSpaceOnUse">
      <feFlood flood-opacity="0" result="BackgroundImageFix"/>
      <feColorMatrix in="SourceAlpha" result="hardAlpha" values="0 0 0 0 0 0 0 0 0 0 0 0 0 0 0 0 0 0 127 0"/>
      <feOffset/>
      <feGaussianBlur stdDeviation="4"/>
      <feComposite in2="hardAlpha" operator="out"/>
      <feColorMatrix values="0 0 0 0 0.368627 0 0 0 0 0.415686 0 0 0 0 0.52549 0 0 0 0.3 0"/>
      <feBlend in2="BackgroundImageFix" result="effect1_dropShadow_129_4419"/>
      <feBlend in="SourceGraphic" in2="effect1_dropShadow_129_4419" result="shape"/>
    </filter>
  </defs>
</svg>
