<svg width="52" height="52" viewBox="0 0 52 52" fill="none" xmlns="http://www.w3.org/2000/svg">
<circle cx="26" cy="26" r="26" fill="#00E09D" fill-opacity="0.1"/>
<circle cx="26" cy="26" r="22" fill="url(#paint0_linear_129_4134)"/>
<path d="M37.775 21.8603C37.775 21.849 37.7863 21.8377 37.7863 21.8264C38.2502 19.4841 36.9716 16.9948 34.4144 16.4969C32.389 16.1009 30.9293 17.3229 30.2617 18.6129C30.1259 17.1758 29.232 15.4786 27.2066 15.0825C24.6607 14.5847 22.5448 16.4064 22.0808 18.7486C22.0808 18.7599 22.0808 18.7713 22.0695 18.7826C21.9564 19.2918 20.9493 24.4854 27.976 30.2562C36.6661 27.5632 37.6958 22.3695 37.775 21.8603Z" fill="white"/>
<path d="M24.4459 30.1539C24.4459 30.1425 24.4459 30.1425 24.4459 30.1312C24.1744 28.7282 22.9071 27.6419 21.3795 27.9361C20.1688 28.1737 19.637 29.1808 19.5578 30.0407C19.1617 29.2713 18.2792 28.5358 17.0684 28.7734C15.5409 29.0676 14.7828 30.5499 15.0543 31.953C15.0543 31.9643 15.0543 31.9643 15.0543 31.9756C15.1109 32.2811 15.7219 35.3928 20.9156 36.9995C25.1135 33.5597 24.5138 30.4594 24.4459 30.1539Z" fill="white"/>
<defs>
<linearGradient id="paint0_linear_129_4134" x1="15" y1="7.5" x2="35" y2="46" gradientUnits="userSpaceOnUse">
<stop stop-color="#02E8A3"/>
<stop offset="1" stop-color="#00B57E"/>
</linearGradient>
</defs>
</svg>
