<svg width="80" height="80" viewBox="0 0 80 80" fill="none" xmlns="http://www.w3.org/2000/svg">
<g filter="url(#filter0_d_129_4399)">
<circle cx="40" cy="40" r="32" fill="white"/>
</g>
<path fill-rule="evenodd" clip-rule="evenodd" d="M41.9838 30.5416C42.0711 30.7109 42.0928 30.9278 42.1361 31.3614C42.2182 32.1823 42.2593 32.5927 42.4311 32.8179C42.649 33.1036 43.0034 33.2504 43.3595 33.2025C43.6402 33.1647 43.9594 32.9035 44.5979 32.3811C44.9352 32.1051 45.1038 31.9672 45.2853 31.9092C45.5158 31.8355 45.7652 31.848 45.9872 31.9442C46.162 32.0199 46.3161 32.174 46.6243 32.4822L47.5178 33.3757C47.8259 33.6839 47.98 33.8379 48.0558 34.0128C48.152 34.2348 48.1644 34.4841 48.0908 34.7146C48.0328 34.8961 47.8948 35.0648 47.6188 35.4021C47.0964 36.0406 46.8352 36.3598 46.7975 36.6406C46.7496 36.9966 46.8964 37.351 47.182 37.5689C47.4072 37.7407 47.8176 37.7818 48.6385 37.8639C49.0722 37.9072 49.2891 37.9289 49.4584 38.0162C49.6734 38.1272 49.841 38.3123 49.9299 38.5373C50 38.7145 50 38.9324 50 39.3682V40.6319C50 41.0676 50 41.2855 49.93 41.4626C49.841 41.6877 49.6734 41.8729 49.4583 41.9838C49.289 42.0711 49.0722 42.0928 48.6386 42.1361L48.6386 42.1361C47.818 42.2182 47.4077 42.2592 47.1825 42.4309C46.8967 42.6489 46.7499 43.0034 46.7979 43.3596C46.8357 43.6402 47.0968 43.9593 47.619 44.5976C47.8949 44.9348 48.0328 45.1034 48.0908 45.2848C48.1645 45.5154 48.152 45.7648 48.0558 45.9869C47.98 46.1617 47.826 46.3157 47.5179 46.6238L46.6243 47.5174C46.3162 47.8255 46.1621 47.9796 45.9873 48.0554C45.7652 48.1516 45.5159 48.164 45.2854 48.0904C45.1039 48.0324 44.9352 47.8944 44.5979 47.6184L44.5979 47.6184C43.9594 47.096 43.6402 46.8348 43.3595 46.7971C43.0034 46.7492 42.649 46.896 42.4311 47.1816C42.2593 47.4068 42.2183 47.8173 42.1362 48.6383C42.0928 49.0722 42.0711 49.2891 41.9837 49.4585C41.8728 49.6735 41.6877 49.8409 41.4628 49.9299C41.2856 50 41.0676 50 40.6316 50H39.3682C38.9324 50 38.7145 50 38.5373 49.9299C38.3123 49.841 38.1272 49.6734 38.0162 49.4584C37.9289 49.2891 37.9072 49.0722 37.8639 48.6385C37.7818 47.8176 37.7407 47.4072 37.5689 47.182C37.351 46.8964 36.9966 46.7496 36.6406 46.7975C36.3599 46.8352 36.0406 47.0964 35.4021 47.6189L35.4021 47.6189C35.0647 47.8949 34.8961 48.0329 34.7146 48.0908C34.4841 48.1645 34.2347 48.152 34.0127 48.0558C33.8379 47.9801 33.6838 47.826 33.3756 47.5178L32.4822 46.6243C32.174 46.3162 32.0199 46.1621 31.9441 45.9873C31.8479 45.7652 31.8355 45.5159 31.9091 45.2854C31.9671 45.1039 32.1051 44.9352 32.3811 44.5979C32.9035 43.9594 33.1647 43.6402 33.2025 43.3594C33.2504 43.0034 33.1036 42.649 32.8179 42.4311C32.5927 42.2593 32.1823 42.2182 31.3614 42.1361C30.9278 42.0928 30.7109 42.0711 30.5416 41.9838C30.3266 41.8728 30.159 41.6877 30.07 41.4627C30 41.2855 30 41.0676 30 40.6318V39.3683C30 38.9324 30 38.7144 30.0701 38.5372C30.159 38.3123 30.3265 38.1272 30.5415 38.0163C30.7109 37.9289 30.9278 37.9072 31.3616 37.8638H31.3616H31.3616C32.1826 37.7817 32.5932 37.7407 32.8184 37.5688C33.104 37.3509 33.2507 36.9966 33.2029 36.6407C33.1651 36.3599 32.9039 36.0405 32.3813 35.4018C32.1052 35.0643 31.9671 34.8956 31.9091 34.7141C31.8356 34.4836 31.848 34.2344 31.9441 34.0124C32.0199 33.8375 32.174 33.6834 32.4823 33.3751L33.3757 32.4818L33.3757 32.4818C33.6839 32.1736 33.8379 32.0195 34.0128 31.9437C34.2348 31.8475 34.4841 31.8351 34.7146 31.9087C34.8961 31.9667 35.0648 32.1047 35.4022 32.3808C36.0406 32.9031 36.3598 33.1643 36.6404 33.2021C36.9966 33.25 37.3511 33.1032 37.5691 32.8174C37.7408 32.5923 37.7818 32.1819 37.8639 31.3613C37.9072 30.9278 37.9289 30.711 38.0162 30.5417C38.1271 30.3266 38.3123 30.159 38.5374 30.07C38.7145 30 38.9324 30 39.3681 30H40.6318C41.0676 30 41.2855 30 41.4627 30.07C41.6877 30.159 41.8728 30.3266 41.9838 30.5416ZM40 44C42.2091 44 44 42.2091 44 40C44 37.7909 42.2091 36 40 36C37.7909 36 36 37.7909 36 40C36 42.2091 37.7909 44 40 44Z" fill="black"/>
<defs>
<filter id="filter0_d_129_4399" x="0" y="0" width="80" height="80" filterUnits="userSpaceOnUse" color-interpolation-filters="sRGB">
<feFlood flood-opacity="0" result="BackgroundImageFix"/>
<feColorMatrix in="SourceAlpha" type="matrix" values="0 0 0 0 0 0 0 0 0 0 0 0 0 0 0 0 0 0 127 0" result="hardAlpha"/>
<feOffset/>
<feGaussianBlur stdDeviation="4"/>
<feComposite in2="hardAlpha" operator="out"/>
<feColorMatrix type="matrix" values="0 0 0 0 0.368627 0 0 0 0 0.415686 0 0 0 0 0.52549 0 0 0 0.3 0"/>
<feBlend mode="normal" in2="BackgroundImageFix" result="effect1_dropShadow_129_4399"/>
<feBlend mode="normal" in="SourceGraphic" in2="effect1_dropShadow_129_4399" result="shape"/>
</filter>
</defs>
</svg>
