<svg width="24" height="24" viewBox="0 0 24 24" fill="none" xmlns="http://www.w3.org/2000/svg">
<g clip-path="url(#clip0_109_1063)">
<path d="M11.9999 6.7C13.2999 6.7 14.4999 7.2 15.4999 8L18.1999 5.4C16.5999 3.9 14.3999 3 12.0999 3C8.3999 3 5.2999 5.2 3.8999 8.3L6.9999 10.6C7.5999 8.3 9.5999 6.7 11.9999 6.7Z" fill="#CC4435"/>
<path d="M21.0998 12C21.0998 11.5 21.0998 11 20.9998 10.5H17.2998H12.2998V14H16.9998C16.5998 15 15.9998 15.8 15.0998 16.4L18.1998 18.7C19.9998 16.9 21.0998 14.6 21.0998 12Z" fill="#5E83EB"/>
<path d="M6.6999 12C6.6999 11.5 6.7999 11 6.8999 10.5L3.7999 8.20001C3.1999 9.40001 2.8999 10.6 2.8999 12C2.8999 13.3 3.1999 14.5 3.6999 15.6L6.9999 13.7C6.7999 13.2 6.6999 12.6 6.6999 12Z" fill="#E2B630"/>
<path d="M12 21.1C14.4 21.1 16.6 20.2 18.2 18.6L15.1 16.3C14.2 16.9 13.2 17.3 12 17.3C9.69995 17.3 7.69995 15.8 6.99995 13.7L3.69995 15.6C5.09995 18.8 8.29995 21.1 12 21.1Z" fill="#65A457"/>
</g>
<defs>
<clipPath id="clip0_109_1063">
<rect width="24" height="24" fill="white"/>
</clipPath>
</defs>
</svg>
