<svg width="84" height="84" viewBox="0 0 84 84" fill="none" xmlns="http://www.w3.org/2000/svg">
<g filter="url(#filter0_d_129_4872)">
<path fill-rule="evenodd" clip-rule="evenodd" d="M42 8C23.2223 8 8 23.2223 8 42C8 60.7777 23.2223 76 42 76C60.7777 76 76 60.7777 76 42C76 23.2223 60.7777 8 42 8ZM4 42C4 21.0132 21.0132 4 42 4C62.9868 4 80 21.0132 80 42C80 62.9868 62.9868 80 42 80C21.0132 80 4 62.9868 4 42Z" fill="white"/>
</g>
<mask id="mask0_129_4872" style="mask-type:alpha" maskUnits="userSpaceOnUse" x="12" y="12" width="60" height="60">
<circle cx="42" cy="42" r="30" fill="#D9D9D9"/>
</mask>
<g mask="url(#mask0_129_4872)">
<g filter="url(#filter1_f_129_4872)">
<path d="M7.2878 36.182L35.1775 30.0975C40.1639 28.9979 45.1014 32.1745 46.1769 37.1594L49.8923 54.1421C50.9922 59.127 47.8146 64.0629 42.8282 65.1381L23.9092 69.2677L17.1384 76.0608C17.1384 76.0608 15.2318 78.6021 14.5963 75.7431C14.3274 74.5214 13.9363 72.9086 13.5697 71.4425C9.07215 71.7357 4.91681 68.7301 3.91464 64.1851L0.223719 47.178C-0.876225 42.1931 2.27695 37.2571 7.2878 36.182Z" fill="white" fill-opacity="0.3"/>
<path fill-rule="evenodd" clip-rule="evenodd" d="M42.7539 8.15518L76.2411 15.4614C82.2297 16.7565 86.0428 22.6699 84.7473 28.6077L80.2987 49.0114C79.1009 54.4606 74.1145 58.1015 68.7126 57.7349C68.2726 59.4943 67.8082 61.4491 67.4904 62.9153C66.7327 66.3607 64.435 63.3062 64.435 63.3062L56.2955 55.1692L33.5877 50.2332C27.5991 48.9381 23.8105 43.0247 25.1059 37.038L29.5546 16.6343C30.8501 10.6476 36.7653 6.86009 42.7539 8.15518ZM40.2859 33.8366C42.7698 33.8366 44.7835 31.8236 44.7835 29.3405C44.7835 26.8573 42.7698 24.8443 40.2859 24.8443C37.802 24.8443 35.7884 26.8573 35.7884 29.3405C35.7884 31.8236 37.802 33.8366 40.2859 33.8366ZM59.2908 35.2745C60.7119 33.2378 60.2123 30.4351 58.175 29.0145C56.1377 27.5939 53.3341 28.0933 51.913 30.13C50.492 32.1667 50.9916 34.9693 53.0289 36.39C55.0662 37.8106 57.8698 37.3111 59.2908 35.2745ZM70.93 31.5433C73.4102 31.6812 75.309 33.8029 75.1711 36.2823C75.0332 38.7618 72.9108 40.66 70.4306 40.5221C67.9504 40.3843 66.0516 38.2626 66.1895 35.7831C66.3274 33.3037 68.4498 31.4055 70.93 31.5433Z" fill="white"/>
</g>
</g>
<circle cx="42" cy="42" r="19" fill="#F6A800"/>
<path d="M32.6515 32.679C33.1388 32.6823 33.6127 32.7685 34.0734 32.9375C34.5374 33.1032 34.955 33.375 35.3263 33.7528C35.6975 34.1274 35.9925 34.6295 36.2112 35.2592C36.43 35.889 36.5393 36.6679 36.5393 37.5959C36.5426 38.4709 36.4498 39.2531 36.2609 39.9425C36.0753 40.6286 35.8085 41.2086 35.4605 41.6825C35.1125 42.1565 34.6932 42.5178 34.2027 42.7663C33.7122 43.0149 33.1603 43.1392 32.5471 43.1392C31.9041 43.1392 31.3341 43.0133 30.8369 42.7614C30.3431 42.5095 29.9437 42.1648 29.6388 41.7273C29.3338 41.2898 29.1466 40.7893 29.077 40.2259H30.8916C30.9844 40.6302 31.1733 40.9517 31.4584 41.1903C31.7467 41.4257 32.1096 41.5433 32.5471 41.5433C33.2531 41.5433 33.7967 41.2367 34.1778 40.6236C34.559 40.0104 34.7496 39.1586 34.7496 38.0682H34.68C34.5175 38.3598 34.3071 38.6117 34.0486 38.8239C33.79 39.0327 33.4967 39.1934 33.1686 39.3061C32.8438 39.4188 32.4991 39.4751 32.1345 39.4751C31.5379 39.4751 31.001 39.3326 30.5237 39.0476C30.0497 38.7625 29.6736 38.3714 29.3952 37.8743C29.1201 37.3771 28.9809 36.8087 28.9775 36.169C28.9775 35.5062 29.13 34.9112 29.4349 34.3842C29.7432 33.8539 30.1724 33.4363 30.7226 33.1314C31.2728 32.8232 31.9157 32.6723 32.6515 32.679ZM32.6565 34.1705C32.2986 34.1705 31.9754 34.2583 31.6871 34.4339C31.402 34.6063 31.1766 34.8416 31.0109 35.1399C30.8485 35.4349 30.7673 35.7647 30.7673 36.1293C30.7706 36.4905 30.8518 36.8187 31.0109 37.1136C31.1733 37.4086 31.3937 37.6423 31.6721 37.8146C31.9539 37.987 32.2754 38.0732 32.6366 38.0732C32.9051 38.0732 33.1553 38.0218 33.3873 37.919C33.6193 37.8163 33.8215 37.6738 33.9939 37.4915C34.1695 37.3059 34.3054 37.0954 34.4015 36.8601C34.501 36.6248 34.549 36.3762 34.5457 36.1143C34.5457 35.7663 34.4629 35.4448 34.2971 35.1499C34.1347 34.8549 33.911 34.6179 33.626 34.4389C33.3443 34.2599 33.0211 34.1705 32.6565 34.1705ZM41.7297 32.679C42.2169 32.6823 42.6908 32.7685 43.1515 32.9375C43.6156 33.1032 44.0332 33.375 44.4044 33.7528C44.7756 34.1274 45.0706 34.6295 45.2893 35.2592C45.5081 35.889 45.6175 36.6679 45.6175 37.5959C45.6208 38.4709 45.528 39.2531 45.339 39.9425C45.1534 40.6286 44.8866 41.2086 44.5386 41.6825C44.1906 42.1565 43.7713 42.5178 43.2808 42.7663C42.7903 43.0149 42.2384 43.1392 41.6253 43.1392C40.9823 43.1392 40.4122 43.0133 39.915 42.7614C39.4212 42.5095 39.0218 42.1648 38.7169 41.7273C38.412 41.2898 38.2247 40.7893 38.1551 40.2259H39.9697C40.0625 40.6302 40.2515 40.9517 40.5365 41.1903C40.8248 41.4257 41.1878 41.5433 41.6253 41.5433C42.3312 41.5433 42.8748 41.2367 43.2559 40.6236C43.6371 40.0104 43.8277 39.1586 43.8277 38.0682H43.7581C43.5957 38.3598 43.3852 38.6117 43.1267 38.8239C42.8682 39.0327 42.5748 39.1934 42.2467 39.3061C41.9219 39.4188 41.5772 39.4751 41.2126 39.4751C40.616 39.4751 40.0791 39.3326 39.6018 39.0476C39.1279 38.7625 38.7517 38.3714 38.4733 37.8743C38.1982 37.3771 38.059 36.8087 38.0557 36.169C38.0557 35.5062 38.2081 34.9112 38.5131 34.3842C38.8213 33.8539 39.2505 33.4363 39.8007 33.1314C40.3509 32.8232 40.9939 32.6723 41.7297 32.679ZM41.7346 34.1705C41.3767 34.1705 41.0535 34.2583 40.7652 34.4339C40.4801 34.6063 40.2548 34.8416 40.089 35.1399C39.9266 35.4349 39.8454 35.7647 39.8454 36.1293C39.8488 36.4905 39.93 36.8187 40.089 37.1136C40.2515 37.4086 40.4719 37.6423 40.7503 37.8146C41.032 37.987 41.3535 38.0732 41.7148 38.0732C41.9832 38.0732 42.2335 38.0218 42.4655 37.919C42.6975 37.8163 42.8997 37.6738 43.072 37.4915C43.2477 37.3059 43.3836 37.0954 43.4797 36.8601C43.5791 36.6248 43.6272 36.3762 43.6238 36.1143C43.6238 35.7663 43.541 35.4448 43.3753 35.1499C43.2129 34.8549 42.9891 34.6179 42.7041 34.4389C42.4224 34.2599 42.0992 34.1705 41.7346 34.1705ZM50.2957 41.3693V34.4886H51.8568V41.3693H50.2957ZM47.6359 38.7095V37.1484H54.5166V38.7095H47.6359Z" fill="white"/>
<path d="M43.7536 48.1047C43.7511 48.0957 43.7491 48.0886 43.7467 48.0796C43.3074 46.4727 41.7272 45.3222 39.9553 45.8066C38.5468 46.1917 38.0039 47.4137 37.9813 48.4241C37.4478 47.5657 36.3587 46.7899 34.9502 47.1749C33.1783 47.6593 32.4032 49.4537 32.8425 51.0606C32.8449 51.0696 32.8469 51.0767 32.8493 51.0857C32.9359 51.4379 33.9177 54.9936 40.1613 56.4054C44.8224 52.0144 43.8582 48.4519 43.7536 48.1047Z" fill="white"/>
<path fill-rule="evenodd" clip-rule="evenodd" d="M43.8929 48.9428C43.9537 49.8223 43.8327 51.3139 42.7949 53.1469C42.3253 51.7768 42.5389 50.8417 42.5785 50.6877L42.5832 50.6674C42.7536 49.9224 43.2361 49.2865 43.8929 48.9428ZM44.9861 48.6692C45.1822 48.6673 45.3848 48.6887 45.5917 48.736C46.7563 49.0026 47.2461 49.9646 47.3031 50.7726C47.7059 50.0698 48.5655 49.4167 49.73 49.6832C51.1951 50.0185 51.8964 51.4317 51.599 52.7309L51.5944 52.7512C51.5372 53.0356 50.871 55.912 45.8249 57.2244C44.6294 56.2072 43.853 55.2353 43.3537 54.366C44.1666 53.1238 44.6103 51.9752 44.831 50.9791C45.043 50.0219 45.0432 49.2327 44.9861 48.6692Z" fill="white"/>
<defs>
<filter id="filter0_d_129_4872" x="0" y="0" width="84" height="84" filterUnits="userSpaceOnUse" color-interpolation-filters="sRGB">
<feFlood flood-opacity="0" result="BackgroundImageFix"/>
<feColorMatrix in="SourceAlpha" type="matrix" values="0 0 0 0 0 0 0 0 0 0 0 0 0 0 0 0 0 0 127 0" result="hardAlpha"/>
<feOffset/>
<feGaussianBlur stdDeviation="2"/>
<feComposite in2="hardAlpha" operator="out"/>
<feColorMatrix type="matrix" values="0 0 0 0 0 0 0 0 0 0 0 0 0 0 0 0 0 0 0.25 0"/>
<feBlend mode="normal" in2="BackgroundImageFix" result="effect1_dropShadow_129_4872"/>
<feBlend mode="normal" in="SourceGraphic" in2="effect1_dropShadow_129_4872" result="shape"/>
</filter>
<filter id="filter1_f_129_4872" x="-19.9951" y="-12.0986" width="124.995" height="109.2" filterUnits="userSpaceOnUse" color-interpolation-filters="sRGB">
<feFlood flood-opacity="0" result="BackgroundImageFix"/>
<feBlend mode="normal" in="SourceGraphic" in2="BackgroundImageFix" result="shape"/>
<feGaussianBlur stdDeviation="10" result="effect1_foregroundBlur_129_4872"/>
</filter>
</defs>
</svg>
