<svg width="29" height="29" viewBox="0 0 29 29" fill="none" xmlns="http://www.w3.org/2000/svg">
<g filter="url(#filter0_d_129_3631)">
<circle cx="15.5" cy="15.5" r="7.5" fill="white"/>
<path fill-rule="evenodd" clip-rule="evenodd" d="M24.1199 14.4709C24.1199 19.7501 19.8219 24.0298 14.5199 24.0298C9.21799 24.0298 4.91992 19.7501 4.91992 14.4709C4.91992 9.19174 9.21799 4.91211 14.5199 4.91211C19.8219 4.91211 24.1199 9.19174 24.1199 14.4709ZM14.5199 20.2503C13.9676 20.2503 13.5199 19.8026 13.5199 19.2503V15.4709H9.71992C9.16764 15.4709 8.71992 15.0232 8.71992 14.4709C8.71992 13.9186 9.16764 13.4709 9.71992 13.4709H13.5199V9.69152C13.5199 9.13924 13.9676 8.69152 14.5199 8.69152C15.0722 8.69152 15.5199 9.13924 15.5199 9.69152V13.4709H19.3199C19.8722 13.4709 20.3199 13.9186 20.3199 14.4709C20.3199 15.0232 19.8722 15.4709 19.3199 15.4709H15.5199V19.2503C15.5199 19.8026 15.0722 20.2503 14.5199 20.2503Z" fill="#FD5D65"/>
</g>
<defs>
<filter id="filter0_d_129_3631" x="0.919922" y="0.912109" width="27.2002" height="27.1172" filterUnits="userSpaceOnUse" color-interpolation-filters="sRGB">
<feFlood flood-opacity="0" result="BackgroundImageFix"/>
<feColorMatrix in="SourceAlpha" type="matrix" values="0 0 0 0 0 0 0 0 0 0 0 0 0 0 0 0 0 0 127 0" result="hardAlpha"/>
<feOffset/>
<feGaussianBlur stdDeviation="2"/>
<feComposite in2="hardAlpha" operator="out"/>
<feColorMatrix type="matrix" values="0 0 0 0 0 0 0 0 0 0 0 0 0 0 0 0 0 0 0.25 0"/>
<feBlend mode="normal" in2="BackgroundImageFix" result="effect1_dropShadow_129_3631"/>
<feBlend mode="normal" in="SourceGraphic" in2="effect1_dropShadow_129_3631" result="shape"/>
</filter>
</defs>
</svg>
