<svg width="36" height="36" viewBox="0 0 36 36" fill="none" xmlns="http://www.w3.org/2000/svg">
<path d="M18.0003 14.4746C15.4503 14.4746 13.4253 16.4996 13.4253 19.0496C13.4253 21.5996 15.4503 23.6246 18.0003 23.6246C20.5503 23.6246 22.5753 21.5996 22.5753 19.0496C22.5753 16.4996 20.5503 14.4746 18.0003 14.4746ZM18.0003 21.7496C16.5003 21.7496 15.2253 20.5496 15.2253 18.9746C15.2253 17.4746 16.4253 16.1996 18.0003 16.1996C19.5753 16.1996 20.7753 17.3996 20.7753 18.9746C20.7753 20.5496 19.5003 21.7496 18.0003 21.7496Z" fill="#5E6A86"/>
<path d="M30 0H6C2.7 0 0 2.7 0 6V30C0 33.3 2.7 36 6 36H30C33.3 36 36 33.3 36 30V6C36 2.7 33.3 0 30 0ZM27.15 23.625C27.075 24.6 26.25 25.275 25.35 25.2H10.65C9.675 25.275 8.85 24.525 8.85 23.625V14.025C8.925 13.05 9.75 12.375 10.65 12.45H12.825C13.275 12.45 13.725 12.3 14.1 11.925L14.7 11.325C15.075 11.025 15.525 10.8 15.975 10.8H20.025C20.475 10.8 20.925 10.95 21.3 11.325L21.9 11.925C22.275 12.225 22.725 12.45 23.175 12.45H25.35C26.325 12.375 27.15 13.125 27.15 14.025V23.625V23.625Z" fill="#5E6A86"/>
</svg>
