<svg width="84" height="84" viewBox="0 0 84 84" fill="none" xmlns="http://www.w3.org/2000/svg">
<g filter="url(#filter0_d_129_4867)">
<path fill-rule="evenodd" clip-rule="evenodd" d="M42 8C23.2223 8 8 23.2223 8 42C8 60.7777 23.2223 76 42 76C60.7777 76 76 60.7777 76 42C76 23.2223 60.7777 8 42 8ZM4 42C4 21.0132 21.0132 4 42 4C62.9868 4 80 21.0132 80 42C80 62.9868 62.9868 80 42 80C21.0132 80 4 62.9868 4 42Z" fill="white"/>
</g>
<g filter="url(#filter1_d_129_4867)">
<path d="M30.4993 29.0953C30.4993 29.0855 30.4993 29.0776 30.4993 29.0678C30.4993 27.3135 29.2575 25.7061 27.3889 25.7061C25.9037 25.7061 25.0432 26.7966 24.75 27.8167C24.4568 26.7966 23.5963 25.7061 22.1111 25.7061C20.2425 25.7061 19.0007 27.3135 19.0007 29.0678C19.0007 29.0776 19.0007 29.0855 19.0007 29.0953C18.9911 29.4771 19.0007 33.3616 24.7481 36.5296C30.4993 33.3636 30.5089 29.4771 30.4993 29.0953Z" fill="white"/>
<path fill-rule="evenodd" clip-rule="evenodd" d="M56.8823 60.206C61.3655 60.206 64.9999 56.5716 64.9999 52.0884C64.9999 47.6051 61.3655 43.9707 56.8823 43.9707C52.399 43.9707 48.7646 47.6051 48.7646 52.0884C48.7646 56.5716 52.399 60.206 56.8823 60.206ZM61.3398 50.2988C61.7097 49.9344 61.7097 49.3437 61.3398 48.9793C60.97 48.615 60.3703 48.615 60.0005 48.9793L55.6191 53.2956L53.7633 51.4673C53.3935 51.103 52.7938 51.103 52.424 51.4673C52.0541 51.8317 52.0541 52.4224 52.424 52.7868L54.8155 55.1428C55.2594 55.5801 55.9789 55.5801 56.4228 55.1428L61.3398 50.2988Z" fill="white"/>
<path fill-rule="evenodd" clip-rule="evenodd" d="M35.3577 30.788C35.3577 27.0472 38.3902 24.0146 42.131 24.0146C45.8718 24.0146 48.9043 27.0472 48.9043 30.788C48.9043 34.5287 45.8718 37.5613 42.131 37.5613C38.3902 37.5613 35.3577 34.5287 35.3577 30.788ZM28.1328 47.947C28.1328 44.2062 31.1653 41.1737 34.9061 41.1737H35.5218C35.855 41.1737 36.1862 41.2264 36.5029 41.3298L38.0662 41.8403C40.7074 42.7027 43.5545 42.7027 46.1957 41.8403L47.759 41.3298C48.0758 41.2264 48.4069 41.1737 48.7401 41.1737H49.3558C50.5253 41.1737 51.6255 41.4701 52.5855 41.9918C48.7018 43.7501 46 47.6595 46 52.2C46 52.6985 46.0326 53.1894 46.0957 53.6707C40.8769 53.9569 35.6348 53.6776 30.4615 52.833C29.1188 52.6138 28.1328 51.4538 28.1328 50.0933V47.947Z" fill="white"/>
</g>
<defs>
<filter id="filter0_d_129_4867" x="0" y="0" width="84" height="84" filterUnits="userSpaceOnUse" color-interpolation-filters="sRGB">
<feFlood flood-opacity="0" result="BackgroundImageFix"/>
<feColorMatrix in="SourceAlpha" type="matrix" values="0 0 0 0 0 0 0 0 0 0 0 0 0 0 0 0 0 0 127 0" result="hardAlpha"/>
<feOffset/>
<feGaussianBlur stdDeviation="2"/>
<feComposite in2="hardAlpha" operator="out"/>
<feColorMatrix type="matrix" values="0 0 0 0 0 0 0 0 0 0 0 0 0 0 0 0 0 0 0.25 0"/>
<feBlend mode="normal" in2="BackgroundImageFix" result="effect1_dropShadow_129_4867"/>
<feBlend mode="normal" in="SourceGraphic" in2="effect1_dropShadow_129_4867" result="shape"/>
</filter>
<filter id="filter1_d_129_4867" x="15" y="20.0146" width="54" height="44.1914" filterUnits="userSpaceOnUse" color-interpolation-filters="sRGB">
<feFlood flood-opacity="0" result="BackgroundImageFix"/>
<feColorMatrix in="SourceAlpha" type="matrix" values="0 0 0 0 0 0 0 0 0 0 0 0 0 0 0 0 0 0 127 0" result="hardAlpha"/>
<feOffset/>
<feGaussianBlur stdDeviation="2"/>
<feComposite in2="hardAlpha" operator="out"/>
<feColorMatrix type="matrix" values="0 0 0 0 0 0 0 0 0 0 0 0 0 0 0 0 0 0 0.25 0"/>
<feBlend mode="normal" in2="BackgroundImageFix" result="effect1_dropShadow_129_4867"/>
<feBlend mode="normal" in="SourceGraphic" in2="effect1_dropShadow_129_4867" result="shape"/>
</filter>
</defs>
</svg>
