<svg width="24" height="24" viewBox="0 0 24 24" fill="none" xmlns="http://www.w3.org/2000/svg">
<circle cx="12" cy="12" r="8" fill="white"/>
<path d="M11.98 2.25C6.60773 2.25 2.22998 6.62775 2.22998 12C2.22998 17.3723 6.60773 21.75 11.98 21.75C17.3522 21.75 21.73 17.3723 21.73 12C21.73 6.62775 17.3522 2.25 11.98 2.25ZM16.6405 9.7575L11.1122 15.2858C10.9757 15.4223 10.7905 15.5003 10.5955 15.5003C10.4005 15.5003 10.2152 15.4223 10.0787 15.2858L7.31948 12.5265C7.03673 12.2438 7.03673 11.7757 7.31948 11.493C7.60223 11.2102 8.07023 11.2102 8.35298 11.493L10.5955 13.7355L15.607 8.724C15.8897 8.44125 16.3577 8.44125 16.6405 8.724C16.9232 9.00675 16.9232 9.465 16.6405 9.7575Z" fill="#FD5D65"/>
</svg>
