<svg width="28" height="28" viewBox="0 0 28 28" fill="none" xmlns="http://www.w3.org/2000/svg">
<g filter="url(#filter0_d_129_3614)">
<circle cx="14" cy="14.7062" r="7.5" transform="rotate(45 14 14.7062)" fill="#FD5D65"/>
<path fill-rule="evenodd" clip-rule="evenodd" d="M21.0711 21.0706C17.1658 24.9759 10.8342 24.9759 6.92893 21.0706C3.02369 17.1654 3.02369 10.8337 6.92893 6.92849C10.8342 3.02325 17.1658 3.02325 21.0711 6.92849C24.9763 10.8337 24.9763 17.1654 21.0711 21.0706ZM9.75736 18.2422C9.36683 17.8517 9.36683 17.2185 9.75736 16.828L12.5858 13.9996L9.75736 11.1711C9.36684 10.7806 9.36683 10.1474 9.75736 9.75692C10.1479 9.36639 10.781 9.36639 11.1716 9.75692L14 12.5853L16.8284 9.75692C17.219 9.36639 17.8521 9.36639 18.2426 9.75692C18.6332 10.1474 18.6332 10.7806 18.2426 11.1711L15.4142 13.9996L18.2426 16.828C18.6332 17.2185 18.6332 17.8517 18.2426 18.2422C17.8521 18.6327 17.219 18.6327 16.8284 18.2422L14 15.4138L11.1716 18.2422C10.781 18.6327 10.1479 18.6327 9.75736 18.2422Z" fill="white"/>
</g>
<defs>
<filter id="filter0_d_129_3614" x="0" y="0" width="28" height="28" filterUnits="userSpaceOnUse" color-interpolation-filters="sRGB">
<feFlood flood-opacity="0" result="BackgroundImageFix"/>
<feColorMatrix in="SourceAlpha" type="matrix" values="0 0 0 0 0 0 0 0 0 0 0 0 0 0 0 0 0 0 127 0" result="hardAlpha"/>
<feOffset/>
<feGaussianBlur stdDeviation="2"/>
<feComposite in2="hardAlpha" operator="out"/>
<feColorMatrix type="matrix" values="0 0 0 0 0 0 0 0 0 0 0 0 0 0 0 0 0 0 0.25 0"/>
<feBlend mode="normal" in2="BackgroundImageFix" result="effect1_dropShadow_129_3614"/>
<feBlend mode="normal" in="SourceGraphic" in2="effect1_dropShadow_129_3614" result="shape"/>
</filter>
</defs>
</svg>
