<svg width="24" height="24" viewBox="0 0 24 24" fill="none" xmlns="http://www.w3.org/2000/svg">
<path d="M21 11.5C21 16.75 16.75 21 11.5 21C6.25 21 2 16.75 2 11.5C2 6.25 6.25 2 11.5 2" stroke="#5E6A86" stroke-width="2.5" stroke-linecap="round" stroke-linejoin="round"/>
<path d="M22 22L19 19" stroke="#5E6A86" stroke-width="2.5" stroke-linecap="round" stroke-linejoin="round"/>
<path d="M15.1355 5.13985C14.7436 3.95708 15.2027 2.48399 16.5014 2.08615C17.1844 1.8711 18.0242 2.05389 18.5056 2.68829C18.9535 2.03239 19.8268 1.88185 20.4986 2.08615C21.7973 2.48399 22.2564 3.95708 21.8645 5.13985C21.2487 7.02153 19.099 8 18.5056 8C17.901 8 15.7737 7.04303 15.1355 5.13985Z" fill="#5E6A86"/>
</svg>
