<svg width="24" height="24" viewBox="0 0 24 24" fill="none" xmlns="http://www.w3.org/2000/svg">
<path d="M19.4416 10.9956H14.5658C13.9298 10.9956 13.5059 10.5717 13.5059 9.93569V5.05995C13.5059 4.42398 13.9298 4 14.5658 4H19.4416C20.0775 4 20.5015 4.42398 20.5015 5.05995V9.93569C20.5015 10.5717 20.0775 10.9956 19.4416 10.9956Z" fill="#919DB8"/>
<path d="M7.88758 19.8992C9.99499 19.8992 11.7034 18.1908 11.7034 16.0834C11.7034 13.976 9.99499 12.2676 7.88758 12.2676C5.78017 12.2676 4.07178 13.976 4.07178 16.0834C4.07178 18.1908 5.78017 19.8992 7.88758 19.8992Z" fill="#919DB8"/>
<path d="M16.5572 12.5803L12.7414 19.1519C12.5294 19.4699 12.7414 19.9999 13.1653 19.9999H20.797C21.2209 19.9999 21.4329 19.5759 21.2209 19.1519L17.4051 12.5803C17.2991 12.2623 16.7692 12.2623 16.5572 12.5803Z" fill="#919DB8"/>
<path d="M11.4918 5.0602L11.2798 4.84821C10.8558 4.31824 10.2199 4.00025 9.47792 4.10625C8.84195 4.21224 8.31198 4.53022 7.99399 4.9542C7.57002 4.53022 7.04004 4.21224 6.51007 4.10625C5.76811 4.00025 5.02615 4.31824 4.60217 4.84821L4.49617 5.0602C3.75421 6.01415 3.86021 7.49807 4.70816 8.34603L7.46402 10.8899C7.57002 10.9959 7.67601 11.1019 7.888 11.1019H7.99399H8.09999C8.31198 11.1019 8.41797 10.9959 8.52397 10.8899L11.2798 8.34603C12.1278 7.49807 12.2338 6.01415 11.4918 5.0602Z" fill="#919DB8"/>
</svg>
