<svg width="24" height="24" viewBox="0 0 24 24" fill="none" xmlns="http://www.w3.org/2000/svg">
<path d="M5.90381 11.9247C5.90381 11.9247 5.90381 12.5874 5.90381 15.1054C6.1026 18.0211 8.952 18.2199 8.952 18.2199C8.952 18.2199 11.1387 18.1536 13.3918 18.2199C15.6448 18.2861 16.1086 18.1536 16.44 17.4247C16.705 16.6958 16.3074 16.2319 15.9761 15.8343C16.5725 15.9669 17.1026 15.7681 17.3677 15.4367C18.0303 14.6416 17.3677 13.7801 16.9701 13.5813C17.4339 13.7139 18.5604 13.4488 18.6267 12.5211C18.693 11.5934 17.9641 11.1958 17.9641 11.1958L22.1387 11.1295C22.1387 11.1295 22.9339 11.0633 23.0665 10.003C23.199 8.94277 22.0725 8.67771 22.0725 8.67771H12.2653C12.2653 8.67771 13.8556 7.41868 14.1207 7.15361C14.3857 6.88855 14.8496 6.29217 14.2532 5.49699C13.6568 4.70181 12.7954 5.0994 12.7954 5.0994C12.7954 5.0994 7.56044 9.14157 6.76525 9.80422C5.97007 10.5331 5.90381 11.9247 5.90381 11.9247Z" fill="#5E6A86"/>
<path d="M4.64458 17.4246V9.87038C4.64458 9.40652 4.31325 9.0752 3.8494 9.0752H1.79518C1.33133 9.0752 1 9.40652 1 9.87038V17.4246C1 17.8884 1.33133 18.2198 1.79518 18.2198H3.8494C4.24699 18.2198 4.64458 17.8884 4.64458 17.4246Z" fill="#5E6A86"/>
</svg>
