<svg width="24" height="24" viewBox="0 0 24 24" fill="none" xmlns="http://www.w3.org/2000/svg">
<circle cx="12.5" cy="12.5" r="5.5" fill="white"/>
<path fill-rule="evenodd" clip-rule="evenodd" d="M19 12C19 15.866 15.866 19 12 19C8.13401 19 5 15.866 5 12C5 8.13401 8.13401 5 12 5C15.866 5 19 8.13401 19 12ZM12.7778 8.88889C12.7778 9.31844 12.4296 9.66667 12 9.66667C11.5704 9.66667 11.2222 9.31844 11.2222 8.88889C11.2222 8.45933 11.5704 8.11111 12 8.11111C12.4296 8.11111 12.7778 8.45933 12.7778 8.88889ZM12.7778 11.2222C12.7778 10.7927 12.4296 10.4444 12 10.4444C11.5704 10.4444 11.2222 10.7927 11.2222 11.2222V15.8889C11.2222 16.3184 11.5704 16.6667 12 16.6667C12.4296 16.6667 12.7778 16.3184 12.7778 15.8889V11.2222Z" fill="#919DB8"/>
</svg>
