<svg width="20" height="20" viewBox="0 0 20 20" fill="none" xmlns="http://www.w3.org/2000/svg">
<g clip-path="url(#clip0_129_4530)">
<path d="M0 14.7945V5.20548C0 2.32877 2.32877 0 5.20548 0H14.726C17.6027 0 19.9315 2.32877 19.9315 5.20548V14.726C19.9315 17.6027 17.6027 19.9315 14.726 19.9315H5.20548C2.32877 20 0 17.6712 0 14.7945Z" fill="url(#paint0_linear_129_4530)"/>
<path d="M13.1503 6.23242C12.7393 6.23242 12.4653 6.50639 12.4653 6.91735C12.4653 7.32831 12.7393 7.60228 13.1503 7.60228C13.5612 7.60228 13.8352 7.32831 13.8352 6.91735C13.8352 6.57489 13.4927 6.23242 13.1503 6.23242Z" fill="white"/>
<path d="M10.0681 7.12305C8.49278 7.12305 7.19141 8.42442 7.19141 9.99976C7.19141 11.5751 8.49278 12.8765 10.0681 12.8765C11.6435 12.8765 12.9448 11.5751 12.9448 9.99976C12.9448 8.42442 11.6435 7.12305 10.0681 7.12305ZM10.0681 11.8491C9.04072 11.8491 8.2188 11.0272 8.2188 9.99976C8.2188 8.97236 9.04072 8.15044 10.0681 8.15044C11.0955 8.15044 11.9174 8.97236 11.9174 9.99976C11.9174 11.0272 11.0955 11.8491 10.0681 11.8491Z" fill="white"/>
<path d="M12.3286 15.8902H7.67102C5.75321 15.8902 4.10938 14.3149 4.10938 12.3286V7.67102C4.10938 5.75321 5.75321 4.10938 7.67102 4.10938H12.3286C14.2464 4.10938 15.8217 5.68472 15.8217 7.60253V12.3286C15.8902 14.3149 14.3149 15.8902 12.3286 15.8902ZM7.67102 5.27376C6.30116 5.27376 5.27376 6.36965 5.27376 7.67102V12.3286C5.27376 13.6984 6.36965 14.7258 7.67102 14.7258H12.3286C13.6984 14.7258 14.7258 13.6299 14.7258 12.3286V7.67102C14.7258 6.30116 13.6299 5.27376 12.3286 5.27376H7.67102V5.27376Z" fill="white"/>
</g>
<defs>
<linearGradient id="paint0_linear_129_4530" x1="20.2357" y1="-0.206439" x2="-5.66788" y2="25.6972" gradientUnits="userSpaceOnUse">
<stop offset="0.0011048" stop-color="#FBE18A"/>
<stop offset="0.2094" stop-color="#FCBB45"/>
<stop offset="0.3765" stop-color="#F75274"/>
<stop offset="0.5238" stop-color="#D53692"/>
<stop offset="0.7394" stop-color="#8F39CE"/>
<stop offset="1" stop-color="#5B4FE9"/>
</linearGradient>
<clipPath id="clip0_129_4530">
<rect width="20" height="20" fill="white"/>
</clipPath>
</defs>
</svg>
