<svg width="30" height="25" viewBox="0 0 30 25" fill="none" xmlns="http://www.w3.org/2000/svg">
<path fill-rule="evenodd" clip-rule="evenodd" d="M7.84925 8.93072L2.59299 10.0499C0.815576 10.4325 -0.308379 12.1412 0.0749857 13.8839L1.39934 19.7922C1.75656 21.3734 3.23774 22.4191 4.8409 22.3171C4.9716 22.8271 5.111 23.3882 5.20684 23.8133C5.43338 24.8079 6.11298 23.9238 6.11298 23.9238L8.52643 21.5605L15.2615 20.1238C16.5582 19.8509 17.5118 18.863 17.7805 17.6752L11.6852 16.3402L11.6844 16.34C8.80443 15.7121 7.00449 12.8561 7.62085 9.98623L7.62132 9.98406L7.84925 8.93072ZM9.38148 8.60446L9.01756 10.2862C8.56367 12.3996 9.8911 14.4872 11.9893 14.9444L17.7593 16.2081L16.8355 12.087C15.6515 10.6378 15.1529 9.33323 14.9628 8.33417C14.2622 7.91353 13.4004 7.74674 12.5343 7.93313L9.38148 8.60446Z" fill="#FD5D65"/>
<circle cx="19" cy="8" r="6" fill="white"/>
<path fill-rule="evenodd" clip-rule="evenodd" d="M15.2009 0.0896002L26.9337 2.66023C29.0319 3.12605 30.3594 5.2136 29.914 7.30979L28.3554 14.5127C27.9357 16.4364 26.1887 17.7217 24.296 17.5923C24.1418 18.2134 23.9791 18.9035 23.8678 19.4211C23.6023 20.6374 22.7973 19.5591 22.7973 19.5591L19.9454 16.6865L11.9894 14.944C9.8912 14.4868 8.56377 12.3993 9.01767 10.2858L10.5763 3.08292C11.0302 0.969479 13.1027 -0.367592 15.2009 0.0896002ZM24.9065 8.59046C24.8979 8.59907 24.8979 8.60769 24.8979 8.61631C24.829 8.94377 24.0706 12.227 18.4865 13.7782C14.1347 9.96925 14.8758 6.67738 14.9534 6.35853C14.962 6.34992 14.962 6.3413 14.962 6.33268C15.2981 4.85048 16.6855 3.73021 18.2969 4.10076C19.5809 4.38514 20.1152 5.47955 20.1755 6.40162C20.6236 5.59158 21.5802 4.84186 22.8642 5.13486C24.4843 5.50541 25.2426 7.10825 24.9065 8.59046Z" fill="#FD5D65"/>
</svg>
