<svg width="36" height="36" viewBox="0 0 36 36" fill="none" xmlns="http://www.w3.org/2000/svg">
<path d="M23.9997 15.0742C22.7997 15.0742 21.2997 16.4992 19.9497 17.9992C21.3747 19.4992 22.7997 20.9242 23.9997 20.9242C25.4997 20.9242 26.7747 19.5742 26.7747 17.9992C26.7747 16.4242 25.5747 15.0742 23.9997 15.0742Z" fill="#5E6A86"/>
<path d="M11.9254 15.0742C10.4254 15.0742 9.15039 16.4242 9.15039 17.9992C9.15039 19.5742 10.4254 20.9242 11.9254 20.9242C13.1254 20.9242 14.6254 19.4992 15.9754 17.9992C14.6254 16.4992 13.1254 15.0742 11.9254 15.0742Z" fill="#5E6A86"/>
<path d="M30 0H6C2.7 0 0 2.7 0 6V30C0 33.3 2.7 36 6 36H30C33.3 36 36 33.3 36 30V6C36 2.7 33.3 0 30 0ZM24 23.85C21.675 23.85 19.8 22.125 17.925 20.175C16.125 22.125 14.175 23.85 11.85 23.85C8.7 23.85 6.15 21.225 6.15 18C6.15 14.775 8.7 12.15 11.85 12.15C14.175 12.15 16.05 13.875 17.925 15.825C19.725 13.875 21.675 12.15 24 12.15C27.15 12.15 29.7 14.775 29.7 18C29.7 21.225 27.15 23.85 24 23.85Z" fill="#5E6A86"/>
</svg>
