<svg width="24" height="24" viewBox="0 0 24 24" fill="none" xmlns="http://www.w3.org/2000/svg">
<path d="M17.4697 8.46967C17.7626 8.17678 18.2374 8.17678 18.5303 8.46967C18.8232 8.76256 18.8232 9.23744 18.5303 9.53033L17.4697 8.46967ZM12 15L12.5303 15.5303L12 16.0607L11.4697 15.5303L12 15ZM5.46967 9.53033C5.17678 9.23744 5.17678 8.76256 5.46967 8.46967C5.76256 8.17678 6.23744 8.17678 6.53033 8.46967L5.46967 9.53033ZM18.5303 9.53033L12.5303 15.5303L11.4697 14.4697L17.4697 8.46967L18.5303 9.53033ZM11.4697 15.5303L5.46967 9.53033L6.53033 8.46967L12.5303 14.4697L11.4697 15.5303Z" fill="black"/>
</svg>
