<svg width="24" height="24" viewBox="0 0 24 24" fill="none" xmlns="http://www.w3.org/2000/svg">
<path fill-rule="evenodd" clip-rule="evenodd" d="M23 12V12V12C23 15.4169 23 17.1254 22.4418 18.473C21.6975 20.2699 20.2699 21.6975 18.473 22.4418C17.1254 23 15.4169 23 12 23H12H8.33333C4.87637 23 3.17394 22.9739 2.1 21.9C1.02606 20.8261 1 19.1236 1 15.6667V12C1 8.5831 1 6.87464 1.55822 5.52699C2.30251 3.73012 3.73012 2.30251 5.52699 1.55822C6.87464 1 8.5831 1 12 1C15.4169 1 17.1254 1 18.473 1.55822C20.2699 2.30251 21.6975 3.73012 22.4418 5.52699C23 6.87464 23 8.58308 23 12ZM7.33315 9.55508C7.33315 9.00279 7.78087 8.55508 8.33315 8.55508H15.6665C16.2188 8.55508 16.6665 9.00279 16.6665 9.55508C16.6665 10.1074 16.2188 10.5551 15.6665 10.5551H8.33315C7.78087 10.5551 7.33315 10.1074 7.33315 9.55508ZM7.33315 14.444C7.33315 13.8917 7.78087 13.444 8.33315 13.444H11.9998C12.5521 13.444 12.9998 13.8917 12.9998 14.444C12.9998 14.9963 12.5521 15.444 11.9998 15.444H8.33315C7.78087 15.444 7.33315 14.9963 7.33315 14.444Z" fill="#5E6A86"/>
</svg>
