<svg width="24" height="24" viewBox="0 0 24 24" fill="none" xmlns="http://www.w3.org/2000/svg">
<path d="M7.99964 15.7797C9.36578 15.7797 10.6181 16.0144 11.5478 16.4088L11.5288 7.23517C7.78144 4.9535 5.58992 6.54973 5.58992 6.54973C5.58992 6.54973 5.58992 6.54973 5.54248 16.0614C6.27299 15.8829 7.10785 15.7797 7.99964 15.7797Z" fill="#919DB8" stroke="white" stroke-width="0.1"/>
<path d="M11.064 17.5358C10.2387 17.1883 9.14764 17.0006 7.99022 17.0006C7.23125 17.0006 6.48177 17.0851 5.82716 17.2447L4.29025 17.6109L4.29973 16.0522C4.32819 9.84571 4.33768 7.6955 4.34717 6.94434H3.56923C3.25615 6.94434 3 7.19785 3 7.50771V18.024C3 18.3339 3.25615 18.5874 3.56923 18.5874H11.0261C11.3392 18.5874 11.5953 18.3339 11.5953 18.024V17.7611L11.064 17.5358Z" fill="#919DB8" stroke="white" stroke-width="0.1"/>
<path d="M16.0003 15.7804C14.6342 15.7804 13.3819 16.0151 12.4521 16.4095L12.4711 7.23586C16.2185 4.94481 18.41 6.54104 18.41 6.54104C18.41 6.54104 18.41 6.54104 18.4575 16.0527C17.7175 15.8836 16.8826 15.7804 16.0003 15.7804Z" fill="#919DB8" stroke="white" stroke-width="0.1"/>
<path d="M12.9266 17.5367C13.752 17.1893 14.843 17.0015 16.0004 17.0015C16.7594 17.0015 17.5088 17.086 18.1635 17.2457L19.7004 17.6118L19.6909 16.0532C19.6624 9.84669 19.6529 7.69648 19.6434 6.94531H20.4309C20.7439 6.94531 21.0001 7.19883 21.0001 7.50869V18.025C21.0001 18.3348 20.7439 18.5884 20.4309 18.5884H12.974C12.6609 18.5884 12.4048 18.3348 12.4048 18.025V17.7621L12.9266 17.5367Z" fill="#919DB8" stroke="white" stroke-width="0.1"/>
</svg>
