<svg width="24" height="24" viewBox="0 0 24 24" fill="none" xmlns="http://www.w3.org/2000/svg">
<path fill-rule="evenodd" clip-rule="evenodd" d="M16.8871 1.15593C15.7372 1 14.2336 1 12 1C8.5831 1 6.87464 1 5.52699 1.55822C3.73012 2.30251 2.30251 3.73012 1.55822 5.52699C1 6.87464 1 8.5831 1 12V15.6667C1 19.1236 1.02606 20.8261 2.1 21.9C3.17394 22.9739 4.87637 23 8.33333 23H12H12C15.4169 23 17.1254 23 18.473 22.4418C20.2699 21.6975 21.6975 20.2699 22.4418 18.473C23 17.1254 23 15.4169 23 12V12V12C23 10.6163 23 9.51281 22.9629 8.59997C22.3603 8.85747 21.6968 9 21 9C18.2386 9 16 6.76142 16 4C16 2.94339 16.3277 1.96333 16.8871 1.15593ZM18.9735 1.78789C18.3752 2.33633 18 3.12435 18 4C18 5.65685 19.3431 7 21 7C21.6436 7 22.2398 6.79735 22.7284 6.45239C22.6547 6.11875 22.5609 5.81465 22.4418 5.52699C21.768 3.90035 20.5343 2.57632 18.9735 1.78789ZM8.33315 8.55508C7.78087 8.55508 7.33315 9.00279 7.33315 9.55508C7.33315 10.1074 7.78087 10.5551 8.33315 10.5551H15.6665C16.2188 10.5551 16.6665 10.1074 16.6665 9.55508C16.6665 9.00279 16.2188 8.55508 15.6665 8.55508H8.33315ZM8.33315 13.444C7.78087 13.444 7.33315 13.8917 7.33315 14.444C7.33315 14.9963 7.78087 15.444 8.33315 15.444H11.9998C12.5521 15.444 12.9998 14.9963 12.9998 14.444C12.9998 13.8917 12.5521 13.444 11.9998 13.444H8.33315Z" fill="#5E6A86"/>
<path d="M24 4C24 5.65685 22.6569 7 21 7C19.3431 7 18 5.65685 18 4C18 2.34315 19.3431 1 21 1C22.6569 1 24 2.34315 24 4Z" fill="#FD5D65"/>
</svg>
