<svg width="24" height="24" viewBox="0 0 24 24" fill="none" xmlns="http://www.w3.org/2000/svg">
<path d="M11.5965 0.75C8.83153 0.75 6.59011 2.99142 6.59011 5.75635C6.59011 8.52129 8.83153 10.7627 11.5965 10.7627C14.3614 10.7627 16.6028 8.52129 16.6028 5.75635C16.6028 2.99142 14.3614 0.75 11.5965 0.75Z" fill="#5E6A86"/>
<path d="M6.25636 13.4328C3.49142 13.4328 1.25 15.6742 1.25 18.4391V20.0255C1.25 21.0311 1.97877 21.8885 2.97121 22.0505C8.68357 22.9832 14.5094 22.9832 20.2217 22.0505C21.2142 21.8885 21.9429 21.0311 21.9429 20.0255V18.4391C21.9429 15.6742 19.7015 13.4328 16.9366 13.4328H16.4815C16.2352 13.4328 15.9905 13.4717 15.7563 13.5482L14.6008 13.9255C12.6486 14.5629 10.5443 14.5629 8.5921 13.9255L7.43662 13.5482C7.20248 13.4717 6.95773 13.4328 6.71142 13.4328H6.25636Z" fill="#5E6A86"/>
</svg>
