<svg width="24" height="24" viewBox="0 0 24 24" fill="none" xmlns="http://www.w3.org/2000/svg">
<path fill-rule="evenodd" clip-rule="evenodd" d="M4.59026 6.02319L10.5193 2.59372C11.4381 2.06892 12.5625 2.06927 13.4701 2.59327L19.4095 6.02289C20.3185 6.55739 20.8804 7.52211 20.8901 8.58078V15.4201C20.8901 16.479 20.3279 17.4528 19.4201 17.9769L13.4805 21.4067C12.5617 21.9315 11.4378 21.9309 10.5301 21.4069L4.59079 17.9773C3.68164 17.4427 3.12012 16.4681 3.12012 15.4201V8.58007C3.12012 7.52111 3.68249 6.54726 4.59026 6.02319ZM12.0001 17.4501C12.3212 17.4501 12.6227 17.3304 12.8515 17.1015L12.8588 17.0939C12.9634 16.9777 13.0457 16.8486 13.1047 16.707C13.1633 16.5665 13.2001 16.4104 13.2001 16.2501C13.2001 16.0907 13.1637 15.9355 13.1058 15.7957C13.0446 15.6378 12.9595 15.5178 12.859 15.4061L12.8515 15.3986C12.5156 15.0627 11.9904 14.9539 11.5445 15.1449C11.3872 15.206 11.2675 15.291 11.1561 15.3912L11.1487 15.3986C10.9191 15.6283 10.8001 15.9401 10.8001 16.2501C10.8001 16.3999 10.8227 16.5574 10.8851 16.7072L10.8912 16.7195C10.9573 16.8516 11.0368 16.9776 11.1415 17.0939L11.1485 17.1017L11.1563 17.1087C11.268 17.2092 11.3878 17.2946 11.5457 17.3557C11.6855 17.4136 11.8407 17.4501 12.0001 17.4501ZM12.0001 6.80007C11.4797 6.80007 11.0501 7.22961 11.0501 7.75007V13.0001C11.0501 13.5205 11.4797 13.9501 12.0001 13.9501C12.5206 13.9501 12.9501 13.5205 12.9501 13.0001V7.75007C12.9501 7.22961 12.5206 6.80007 12.0001 6.80007Z" fill="black"/>
</svg>
