<svg width="20" height="20" viewBox="0 0 20 20" fill="none" xmlns="http://www.w3.org/2000/svg">
<g clip-path="url(#clip0_129_4536)">
<circle cx="10" cy="10" r="10" fill="#00D95F"/>
<path d="M13.9039 14.041C13.7669 14.2465 13.5614 14.315 13.3559 14.315C13.2189 14.315 13.1505 14.315 13.082 14.2465C11.5066 13.2876 9.6573 13.1506 8.35593 13.2191C6.98607 13.2876 5.95867 13.5615 5.89018 13.5615C5.54771 13.63 5.20525 13.493 5.13675 13.1506C5.06826 12.8081 5.20525 12.4656 5.54771 12.3972C5.6162 12.3972 6.71209 12.0547 8.21894 12.0547C9.10935 12.0547 9.99977 12.0547 10.8217 12.2602C11.8491 12.4656 12.808 12.8081 13.6299 13.2876C13.9724 13.3561 14.0409 13.6985 13.9039 14.041Z" fill="black"/>
<path d="M15.0001 11.644C14.8631 11.8495 14.6576 11.9865 14.3836 11.9865C14.2466 11.9865 14.1097 11.9865 14.0412 11.918C12.1234 10.8221 10.0001 10.6166 8.49322 10.6851C6.84939 10.7536 5.61651 11.096 5.61651 11.096C5.20555 11.1645 4.79459 10.9591 4.65761 10.5481C4.52062 10.1371 4.79459 9.79468 5.13706 9.65769C5.20555 9.65769 6.50692 9.31523 8.28774 9.24673C9.38363 9.17824 10.411 9.31523 11.3699 9.45221C12.6028 9.65769 13.6987 10.0687 14.6576 10.6851C15.0686 10.8906 15.2056 11.3015 15.0001 11.644Z" fill="black"/>
<path d="M15.6849 9.5206C15.5479 9.5206 15.4109 9.45211 15.2739 9.38361C10.7534 6.78087 4.93145 8.28772 4.93145 8.35622C4.45199 8.4932 3.97254 8.21923 3.83556 7.73978C3.69857 7.26033 3.97254 6.78087 4.45199 6.64389C4.52049 6.64389 6.09583 6.16444 8.3561 6.09594C9.65747 6.02745 10.9588 6.16444 12.1232 6.36992C13.6301 6.64389 14.9999 7.12334 16.1643 7.87676C16.5753 8.15074 16.7123 8.63019 16.5068 9.10964C16.3013 9.38361 16.0273 9.5206 15.6849 9.5206Z" fill="black"/>
</g>
<defs>
<clipPath id="clip0_129_4536">
<rect width="20" height="20" fill="white"/>
</clipPath>
</defs>
</svg>
