<svg width="24" height="24" viewBox="0 0 24 24" fill="none" xmlns="http://www.w3.org/2000/svg">
<path d="M11.7388 3.22531C11.8813 2.9249 12.0712 2.9249 12.2137 3.22531C12.641 4.12656 13.7331 5.77886 15.7274 6.02921C17.6267 6.27956 18.8137 5.27816 19.3835 4.57719C19.621 4.32684 19.8109 4.37691 19.8584 4.7274C20.0483 6.32962 20.2857 10.3352 18.8137 13.8901C17.1993 17.8456 13.9705 19.9986 12.1187 21C12.0237 21 11.9763 21 11.8813 21C10.0295 19.9986 6.80066 17.8456 5.18625 13.8901C3.71429 10.4353 3.9517 6.37969 4.14163 4.77747C4.18912 4.42698 4.37905 4.37691 4.61646 4.62726C5.18625 5.27816 6.37332 6.32962 8.27262 6.07928C10.2669 5.77886 11.3115 4.12656 11.7388 3.22531Z" fill="#FD5D65"/>
</svg>
