<svg width="24" height="24" viewBox="0 0 24 24" fill="none" xmlns="http://www.w3.org/2000/svg">
<g clip-path="url(#clip0_129_4478)">
<path d="M15.6535 15H15.3143C15.1448 15 14.9752 15 14.8056 15.0848L14.0426 15.3391C12.686 15.7631 11.2447 15.7631 9.97294 15.3391L9.20989 15.0848C9.04032 15 8.87076 15 8.70119 15H8.36205C6.49681 15 4.9707 16.5261 4.9707 18.3913V19.4935C4.9707 20.1718 5.47941 20.7653 6.15768 20.8501C10.0577 21.4436 14.0426 21.4436 17.9426 20.8501C18.6209 20.7653 19.1296 20.1718 19.1296 19.4935V18.3913C19.0448 16.5261 17.5187 15 15.6535 15Z" fill="#919DB8"/>
<path d="M12 9.5L18 6.04118L12 2.5L6 5.95882L12 9.5Z" fill="#919DB8"/>
<path d="M12.0076 11.1393C11.838 11.1393 11.6684 11.0545 11.4989 10.9697L8.78578 9.18928C8.70099 9.52841 8.61621 9.86755 8.61621 10.2067C8.61621 12.0719 10.1423 13.598 12.0076 13.598C13.8728 13.598 15.3989 12.0719 15.3989 10.2067C15.3989 9.86755 15.3141 9.44363 15.2293 9.10449L12.5163 10.885C12.3467 11.0545 12.1771 11.1393 12.0076 11.1393Z" fill="#919DB8"/>
</g>
<defs>
<clipPath id="clip0_129_4478">
<rect width="24" height="24" fill="white"/>
</clipPath>
</defs>
</svg>
