<svg width="24" height="24" viewBox="0 0 24 24" fill="none" xmlns="http://www.w3.org/2000/svg">
<path d="M15.5453 4.51969L18.3939 5.74053C18.7616 5.89811 19 6.25965 19 6.65968V12.9126C19 14.8503 18.0642 16.6687 16.4874 17.795L12.5812 20.5851C12.2335 20.8335 11.7665 20.8335 11.4188 20.5851L7.51257 17.795C5.93579 16.6687 5 14.8503 5 12.9126V6.65968C5 6.25965 5.2384 5.89811 5.60608 5.74053L8.45473 4.51969C10.7187 3.54943 13.2813 3.54943 15.5453 4.51969Z" fill="#1C92FF"/>
<path fill-rule="evenodd" clip-rule="evenodd" d="M16.0303 9.96967C16.3232 10.2626 16.3232 10.7374 16.0303 11.0303L12.1364 14.9243C11.7849 15.2757 11.2151 15.2757 10.8636 14.9243L8.96967 13.0303C8.67678 12.7374 8.67678 12.2626 8.96967 11.9697C9.26256 11.6768 9.73744 11.6768 10.0303 11.9697L11.5 13.4393L14.9697 9.96967C15.2626 9.67678 15.7374 9.67678 16.0303 9.96967Z" fill="white"/>
</svg>
