<?xml version="1.0" standalone="no"?>
<!DOCTYPE svg PUBLIC "-//W3C//DTD SVG 20010904//EN"
 "http://www.w3.org/TR/2001/REC-SVG-20010904/DTD/svg10.dtd">
<svg version="1.0" xmlns="http://www.w3.org/2000/svg"
 width="44.000000pt" height="44.000000pt" viewBox="0 0 44.000000 44.000000"
 preserveAspectRatio="xMidYMid meet">

<g transform="translate(0.000000,44.000000) scale(0.100000,-0.100000)"
fill="#ffffff" stroke="none">
<path d="M131 340 c-60 -61 -60 -155 1 -212 61 -56 154 -56 212 1 31 32 31 33
-26 45 -59 13 -137 111 -138 174 0 30 -13 28 -49 -8z m47 -34 c6 -24 23 -58
38 -75 27 -33 91 -71 119 -71 25 0 17 -19 -18 -40 -45 -28 -125 -27 -161 1
-67 53 -75 146 -18 212 22 25 27 22 40 -27z"/>
<path d="M263 362 c-7 -4 -9 -13 -5 -19 4 -7 13 -9 19 -5 7 4 9 13 5 19 -4 7
-13 9 -19 5z"/>
<path d="M322 294 c-11 -12 -10 -17 2 -30 15 -14 17 -14 32 0 14 14 14 18 0
31 -18 18 -18 18 -34 -1z"/>
</g>
</svg>
